<svg width="474" height="654" xmlns="http://www.w3.org/2000/svg">
  <path d="M308.673 227.182c3.62 11.71-3.995 21.052-11.108 29.584-4.465 5.344-8.935 10.6-11.727 17.053-3.184 7.363-7.842 14.145-13.896 19.74-1.252 1.15-2.369.28-1.348-1.102 4.208-5.661 9.485-11.749 12.041-18.483 1.99-5.255 5.087-9.71 8.615-14.058 8.174-10.048 18.554-18.445 17.244-32.705-.009-.107.15-.135.179-.03"/>
  <path d="M273.082 291.994c-12.322 14.329-26.223 27.11-34.418 44.416-3.246 6.86-6.416 13.623-11.277 19.527-5.363 6.511-13.974 12.193-20.623 17.275-.951.714-1.17-2.232-.402-3.091 5.794-6.338 13.376-9.44 19.242-15.779 5.906-6.357 9.016-14.986 12.693-22.696 3.567-7.479 8.452-13.468 13.747-19.759 6.17-7.324 12.543-15.073 20.303-20.753.537-.396 1.15.377.735.86M308.436 232.525c-2.521-20.629-29.15-19.517-41.622-11.227-12.881 8.58-24.7 21.7-31.276 35.623-1.05 2.233-4.339.504-3.372-1.72 4.262-9.738 11.544-17.11 19.07-24.386 6.93-6.697 14.187-12.647 23.266-16.145 13.394-5.17 33.456-1.361 34.838 15.334.044.549.153 2.134.087 1.603l-.99.918z"/>
  <path d="M184.475 279.781c5.78.677 9.973 3.623 15.394 5.412 6.698 2.173 10.79-2.792 13.796-7.934 5.218-8.936 9.886-16.636 19.114-22.126 1.111-.656 2.71 1.682 1.86 2.688-4.594 5.496-10.949 7.7-14.77 14.106-2.566 4.308-4.514 8.908-7.852 12.696-8.3 9.44-19.487-.996-27.638-4.59-.141-.058-.043-.262.096-.252M185.113 189.105c-.908-4.475.675-10.301.99-14.793.7-9.932-.772-20.058-1.275-29.991-.493-9.342-.972-18.695-1.59-28.038-.661-9.885-3.686-19.324-4.353-29.113-.121-2 3.073-2.154 3.087-.163.087 8.89 2.885 17.642 3.547 26.55.69 9.373.947 18.746 1.348 28.127.392 9.218 1.252 18.434 1.358 27.67.09 6.196-.493 13.074.169 19.171.068.667-2.765.58-2.895-.087l-.386.667z"/>
  <path d="M179.044 88.959c-.636-13.778-4.072-29.101-9.21-41.884-2.782-6.9-6.764-14.407-13.291-18.436-2.895-1.797-6.271-2.164-9.558-1.467-7.524 1.603-9.23 8.453-11.525 14.588-.448 1.218-2.406.696-2.419-.522-.241-9.546 8.14-17.652 17.534-17.584 7.272.068 12.784 5.903 16.558 11.48 9.53 14.134 15.352 35.593 14.863 52.57-.057 1.603-3.16 1.564-3.237-.07l.285 1.325zM140.467 184.129c-11.364-15.286-1.513-40.937-3.894-58.135-.329-2.445 3.4 1.748 3.72 4.182 2.402 17.778-6.18 36.06 2.068 53.035.555 1.129-1.213 1.834-1.894.918"/>
  <path d="M138.36 130.292c-3.155-3.642-1.478-11.941-1.42-16.511.111-7.634.366-15.315 1.01-22.918.134-1.595 2.864-1.382 2.836.231-.14 7.498-.734 15.034-1.068 22.522-.223 4.735 1.512 12.744-1.305 16.696-.01.01-.043 0-.053-.02"/>
  <path d="M137.842 93.403c-1.593-8.29-1.903-18-3.192-25.816-1.35-8.164-2.944-17.198-.995-25.362.303-1.306 2.371-1.199 2.386.202.183 8.473.198 16.542 1.44 24.997 1.125 7.592 5.654 17.322 3.077 24.78-.058.184-1.725.157-1.802-.037l-.914 1.236zM168.892 186.244c-3.077.203-6.137.405-9.234.512-3.164.097-6.648.725-9.731-.058a.514.514 0 0 1-.048-.975c2.982-1.11 6.539-.667 9.688-.57 3.145.087 6.232.396 9.364.714.207.02.164.359-.039.377M169.158 135.481c-3.523-.841-7.446-.503-11.022-.183-3.044.279-6.233 1.883-9.266 1.428-.605-.087-.77-.859-.417-1.265 2.126-2.453 6.543-2.463 9.534-2.695 4-.32 7.905.213 11.291 2.377.175.095.093.386-.12.338M163.128 82.737c-2.358.279-4.736.511-7.074.86-2.222.367-4.494 1.584-6.712 1.554-.735-.009-1.125-.79-.662-1.37 1.446-1.818 4.161-2.039 6.35-2.31 2.812-.348 5.527.116 8.127 1.121.072.029.043.134-.029.145M191.453 216.354a89.108 89.108 0 0 1-.246-3.8c-.349-8.55-1.035-17.005-3.128-25.324-.526-2.096-3.715-1.015-3.168 1.063 2.369 9.194 2.821 18.668 3.784 28.074a46.17 46.17 0 0 1 2.758-.013M10.141 237.075c1.731 6.522-.864 14.184-2.077 20.63-1.734 9.245-1.565 15.727-1.107 25.052.083 1.576-2.604 3.594-3.17 2.193-2.913-7.295-1.458-15.96.048-23.44 1.562-7.796 2.959-17.197 6.166-24.445.035-.056.126-.056.14.01"/>
  <path d="M26.537 393.511c-8.81-16.812-19.179-32.686-22.953-51.545-3.628-18.135-5.976-41.335.32-59.142.685-1.922 3.324-1.4 3.097.658-1.135 10.386-3.178 19.961-2.947 30.56.232 10.676 1.406 21.305 3.649 31.739 2.106 9.75 6.13 18.32 10.876 27.035 3.463 6.357 7.411 13.256 8.668 20.464.068.357-.535.56-.71.231M207.79 371.077c-6.52 14.097-18.333 27.545-31.108 36.24-13.182 8.967-32.703 13.751-48.503 11.218-.793-.134-.865-1.39-.081-1.593 7.218-1.914 15.128-1.112 22.544-2.319 8.775-1.41 17.033-4.842 24.513-9.614 13.881-8.87 21.328-22.348 31.208-34.89.638-.812 1.82.108 1.426.958"/>
  <path d="M158.446 414.073c1.666 6.897 1.802 14.318 2.633 21.343.73 6.163 2.113 12.531 1.373 18.743-.063.687-1.063.647-1.266.068-2.141-5.894-2.257-12.465-2.866-18.648-.682-6.975-2.048-14.444-1.188-21.43.082-.656 1.16-.724 1.314-.076M26.701 458.391c-.943-10.86.242-22.193-.228-33.16-.42-10.087-1.841-25.575-2.487-35.651-.17-2.407 4.271 2.802 4.387 5.216.468 10.088.879 20.175.912 30.272.025 10.656.722 23.033-2.183 33.352-.062.222-.39.213-.4-.029M121.163 247.143c-9.58 13.652-28.759 20.58-44.192 24.6-19.255 5.014-39.215 4.907-58.654 8.406-.932.173-1.126-1.112-.542-1.576 6.9-5.343 16.966-4.638 25.218-4.995 9.732-.415 19.482-2.193 29.031-4.048 8.48-1.634 16.892-4.01 24.942-7.17 9.233-3.613 16.385-9.343 24.077-15.363.096-.076.174.06.12.146M171.178 250.528c-7.596 4.142-16.457 6.195-24.445 9.302-8.615 3.352-17.273 6.608-25.907 9.95-8.621 3.335-16.178 7.209-23.691 12.64-7.547 5.448-15.695 10.164-22.995 15.932-.707.56-.214 1.816.715 1.488 8.842-3.208 16.631-9.102 24.097-14.706 8.32-6.261 17.128-10.687 26.893-14.318 15.178-5.657 31.84-11.12 45.527-20.064-.067-.074-.13-.15-.194-.224"/>
  <path d="M102.614 407.985c-10.906-9.633-12.273-23.565-10.955-37.295 1.455-15.053 6.277-30.02 9.544-44.773 3.068-13.788 6.541-28.937 14.719-40.734 4.178-6.03 9.223-10.454 15.18-14.648 7.871-5.546 16.255-11.189 25.205-14.84 1.188-.465 2.038 1.353.97 2.02-12.8 7.864-27.957 14.385-37.4 26.482-9.006 11.526-12.736 26.532-15.988 40.474-2.879 12.328-6.058 24.657-8.605 37.052-3.194 15.527-4.943 34.108 7.426 46.156.073.067-.024.182-.096.106M133.862 58.726c-6.098-19.284-2.923-58.068-33.48-54.56-1.227.145-1.532-1.701-.401-2.077 27.247-9.15 36.404 38.878 34.06 56.618-.014.106-.15.097-.18.02"/>
  <path d="M102.126 4.011c-4.164.628-7.678 5.063-9.91 9.614-2.59 5.266-1.697 11.507-1.546 17.151.198 6.656-.025 13.322.231 19.99.257 6.782 2.701 14.898 2.567 21.632-.03.9-1.692.464-1.91-.54-1.526-6.745-3.063-14-3.633-20.92-.672-8.338-.023-16.772-.406-25.12-.459-10.077 2.16-21.198 14.457-24.464.815-.204-.044.64-.675 1.353l.825 1.304z"/>
  <path d="M92.56 69.026c2.579 7.933.657 17.547-.01 25.769-.45 5.73-.822 11.45-.855 17.208-.035 5.187 1.463 10.29 1.294 15.42-.03 1.11-1.57 1.498-1.962.386-3.169-8.764-2.14-19.073-1.44-28.164.381-5.073.905-10.144 1.282-15.228.385-5.1.027-10.387 1.202-15.372.053-.241.415-.28.488-.019M94.149 189.085c4.246-16.115-4.15-30.677-4.325-46.668-.024-2.096 3.194-2.298 3.268-.172.51 15.1 9.638 32.753 2.631 47.41-.405.85-1.82.367-1.574-.57"/>
  <path d="M90.042 146.476c-1.833-7.518-2.194-17.285-3.011-24.957-.98-9.198-2.406-18.994-1.82-28.232.095-1.643 2.245-1.758 2.53-.135 1.498 8.338 1.392 17.18 2.088 25.643.71 8.425 3.077 16.039 3.314 24.512.015.493-2.334 1.498-2.464.976l-.637 2.193z"/>
  <path d="M85.161 94.196c-.7-10.658 1.425-22.793.774-33.528-.367-6.154-1.432-12.27-3.751-17.989-3.27-8.068-9.953-9.816-17.456-12.329-1.025-.348-1.112-2.135.168-2.088 12.737.58 19.965 9.866 22.223 21.653 2.512 13.198 4.043 30.107.622 43.237-.149.59-2.251.31-2.29-.328l-.29 1.372z"/>
  <path d="M66.897 31.064c-5.934-.916-12.49 1.624-14.694 7.788-2.097 5.894-2.454 12.55-2.711 18.744-.508 12.127-.097 31.99-.343 43.45-.004.542-1.735-2.348-1.907-2.87-2.315-7.112-.46-18.822-.581-26.33-.126-7.09-.12-14.162.527-21.226.76-8.252 6.123-25.768 18.318-22.319.719.203-.016 1.276-.73 1.381l2.121 1.382zM49.517 213.79c-.087-2.551 2.116-4.377 2.629-7.004.815-4.252-.652-9.005-1.702-13.073-1.12-4.339-5.638-12.27-3.696-16.619.256-.55 1.098-.724 1.523-.28 3.633 3.74 12.045 38.716 1.342 37.102-.054-.01-.096-.059-.096-.125"/>
  <path d="M46.294 179.114c.088-5.836 1.7-11.227 1.044-17.044-.643-5.65-2.233-15.826-1.184-21.44.14-.792.995 3.266 1.27 3.943 2.14 5.246 2.063 11.73 2.446 17.363.4 5.72.213 11.903-1.364 17.448-.1.359-.69.359-.685-.057l-1.527-.213z"/>
  <path d="M46.646 145.278c-1.58-9.305.571-19.14.968-28.455.212-5.255.056-10.501-1.373-15.574-2.344-8.348-10.094-13.266-16.26-10.492-.893.395-2.517-1.856-1.45-2.186 10.119-3.033 20.005 6.532 21.367 15.374 2.107 13.815-2.415 27.469-2.222 41.267.01.675-.918.714-1.03.066M8.803 240.477c1.981-9.991 2.117-19.333 1.112-29.45-.899-9.062-1.764-20.376.768-29.304.53-1.894 2.555.28 2.373 2.183-1.05 10.696-.483 20.917.236 31.614.585 8.493.802 17.662-2.532 25.653-.469 1.14-2.184.443-1.957-.696"/>
  <path d="M11.306 186.292c-1.207-7.313-.908-15.12-1.25-22.54-.349-7.41-.59-14.862-.078-22.281.124-1.884 3.091-2.125 3.006-.165a282.71 282.71 0 0 0-.068 22.281c.251 7.508 1.308 15.42.126 22.841-.165 1.063-1.585.782-1.736-.136"/>
  <path d="M9.905 142.543c-2.782-10.173 1.816-20.926 5.088-30.637 2.778-8.271 5.615-18.56 13.538-23.334 1.45-.87 2.779 1.198 1.45 2.184-7.86 5.874-10.596 17.13-13.437 26.05-2.648 8.298-2.856 15.825-3.56 24.501-.02.27-1.647 1.313-1.711 1.061l-1.368.175zM40.07 143.152c-4.372 4.136-14.485 7.604-20.017 4.087-.407-.26-.427-.869.076-1.053 2.633-.897 5.538-.435 8.286-.666 3.905-.349 7.625-1.74 11.34-2.84.262-.078.543.26.316.472M40.675 181.105c-1.7 1.477-3.783 2.414-5.935 3.053-1.975.56-4.69 1.207-6.304-.387-.407-.386-.47-1.208.1-1.497 1.634-.841 3.503-.484 5.288-.841 2.115-.416 4.14-1.246 6.294-1.459.557-.058 1 .735.557 1.13M59.828 204.718c-2.642 2.966-5.488 5.623-7.687 8.985-1.266 1.923-3.94.108-2.619-1.796 1.372-1.98 2.961-3.798 4.613-5.517 1.248-1.305 2.721-3.014 4.547-3.412 1.001-.22 1.92.87 1.146 1.74M99.522 186.68c-.787.627-1.668 1.149-2.407 1.844-.806.773-1.367 1.585-1.952 2.523-.966 1.574-3.483.367-2.6-1.314 1.228-2.33 4.074-5.354 6.925-3.77.28.165.285.514.034.716M82.48 142.022c-3.069 1.189-6.257 1.903-9.431 2.831-2.755.802-5.843 2.416-8.714 2.32-.482-.021-.976-.659-.516-1.074 2.256-2 5.726-2.453 8.59-3.179 3.32-.84 6.64-1.372 10.06-1.081.108.008.097.144.01.183M71.907 89.597c-1.691-.097-3.39-.175-5.092-.203-1.498-.03-3.044.222-4.493-.156-.513-.134-.565-.848-.064-1.023 1.436-.512 2.982-.27 4.484-.175 1.76.126 3.504.35 5.243.542.57.068.507 1.044-.078 1.015M120.381 67.055c-2.812-.395-5.576-.463-8.403-.087-2.498.33-4.653 1.535-7.102 1.962-.498.087-.663-.56-.421-.88 3.272-4.472 11.572-3.005 16.104-1.855.557.156.377.947-.178.86M124.628 125.172c-3.02.252-6.079.03-9.113.221-3.305.194-6.436 1.393-9.417 2.783-.39.184-.937-.279-.793-.705 2.363-6.58 14.52-5.952 19.478-3.062a.404.404 0 0 1-.155.763M162.974 208.418c-3.88 3.769-12.226 8.126-17.206 3.951-.402-.337-.025-.869.415-.82 5.928.57 11.886 1.053 16.728-3.198.042-.039.091.03.063.067M151.841 218.621c-5.3.522-11.166-3.245-13.96-7.652-.309-.501.228-1.112.76-.85 2.125 1.053 3.73 2.792 5.565 4.242 2.233 1.758 4.876 3.227 7.664 3.864.231.048.184.386-.029.396M103.744 207.279c-1.748 4.578-3.46 8.618-7.16 12.01-2.837 2.578-7.127 5.08-11.095 4.375-.554-.105-.719-.908-.221-1.207 3.435-2.018 7.156-2.696 10.272-5.401 3.112-2.705 5.91-6.377 7.92-9.932.105-.194.361-.05.284.155M97.777 222.032c-3.18 2.33-8.523 4.919-12.571 4.25-.47-.076-.624-.802-.194-1.033 1.463-.782 3.136-.811 4.746-1.081 2.771-.446 5.405-.976 7.84-2.416.19-.107.354.144.179.28M58.919 233.143c-6.334 7.875-21.37 9.72-29.585 3.807-.603-.434.014-1.217.609-1.168 4.787.493 9.026 2.153 13.974 2.066 5.474-.077 10.045-2.511 14.785-4.946.159-.088.338.087.217.241M35.901 243.202c-2.001-.6-3.948-1.277-5.76-2.329-1.402-.811-3.672-2.453-3.6-4.242.015-.435.402-.724.827-.54.657.289.913.705 1.342 1.275.623.85 1.484 1.584 2.292 2.25 1.521 1.257 3.362 2.098 5.16 2.89.375.174.154.812-.261.696M24.425 246.245c-1.034-.734-2.03-1.603-2.841-2.589-.696-.841-1.977-2.368-1.253-3.489.219-.328.5-.453.88-.416 1.107.116 1.571 1.527 2.069 2.368.647 1.063 1.314 2.086 2.14 3.023.653.726-.207 1.692-.995 1.103M253.957 278.477c-4.556.637-8.215.077-12.288-2.106-2.856-1.517-7.185-4.357-7.76-7.739-.071-.406.407-.773.783-.687 2.596.774 4.393 3.45 6.504 5.092 3.517 2.754 8.22 5.131 12.748 5.063.246 0 .255.338.013.377M236.495 282.12a35.472 35.472 0 0 1-4.31-4.02c-.98-1.073-2.469-2.319-2.527-3.846-.014-.425.411-.899.874-.753 1.5.502 2.21 2.136 3.05 3.39 1.097 1.634 2.16 3.295 3.247 4.929.149.212-.14.454-.334.3M304.74 238.206c-1.706 4.252-5.07 7.39-8.204 10.63-1.71 1.776-3.364 3.602-4.9 5.543-1.58 1.981-2.488 4.378-4.17 6.243-.368.395-.961.048-.893-.445.545-4.048 4.4-7.787 7.078-10.628a649.952 649.952 0 0 1 11.027-11.373c.032-.029.071 0 .062.03M35.703 408.13c-2.136-2.29-4.097-4.272-5.867-6.948-1.554-2.338-5.803-10.53-6.648-13.922-.155-.607 2.209-.192 2.533.3 2.149 3.352 4.835 9.912 6.049 12.348 1.337 2.677 2.666 5.478 4.067 8.115.05.087-.062.184-.134.107M96.791 284.805c2.103 12.977 2.454 25.923 2.122 39.063-.294 11.372-1.267 21.682-5.745 32.136-.077.153-.316.058-.27-.096 2.608-11.557 3.903-22.572 3.99-34.494.091-12.251-.89-24.385-.276-36.609.01-.126.159-.126.18 0M93.332 356.893c-.32 2.54-.792 5.42-1.943 7.73-.072.145-.269.057-.241-.079.465-2.617 1.382-5.1 1.691-7.758.034-.338.537-.23.493.107M91.066 368.216c-.146.155-.285.301-.43.473-.044.04-.127-.027-.088-.077.15-.164.291-.328.436-.482.039-.04.131.029.082.086M89.25 375.927c-6.978 17.333-23.47 33.904-41.783 39.006-.365.105-.67-.426-.303-.63 7.91-4.097 15.666-7.652 22.715-13.207 8.382-6.617 15.051-15.41 19.278-25.218.033-.067.121-.01.092.05M83.36 424.043c-14.641 2.28-35.38 4.957-47.866-5.218-.472-.367-.057-1.198.533-1.043 7.851 2.165 14.605 5.44 22.897 6.048 8.132.59 16.279-.521 24.41-.23.29.018.31.395.025.443M78.45 431.86c-9.857 1.922-20.404 2.637-30.417 3.053-.647.029-.865-.957-.217-1.15 9.77-2.85 20.525-.715 30.57-2.174.166-.03.213.252.064.27M246.053 312.043c-10.21 11.303-10.51 27.816-22.049 38.203-5.146 4.637-11.36 7.902-16.553 12.542-6.416 5.719-8.04 14.927-14.119 20.772-.478.472-1.28-.048-.982-.687 3.147-6.82 7.373-14.096 12.222-19.883 4.482-5.362 11.401-8.735 16.877-12.909 12.838-9.777 12.124-28.396 24.429-38.232.126-.107.262.087.175.194M179.842 397c-6.595 7.835-20.937 16.733-31.529 16.232-.73-.02-.98-1.015-.251-1.285 5.93-2.223 11.756-3.392 17.472-6.367 4.94-2.581 9.186-6.29 14.128-8.803.13-.067.295.086.18.222M14.674 285.492c-2.193 8.647-4.038 16.926-4.527 25.903-.469 9.024.536 18.096 1.444 27.091.048.406-.604.532-.71.136-4.184-16.639-4.353-37.604 2.702-53.526.274-.619 1.265-.252 1.091.396M210.35 349.869c-5.875 1.487-12.133 4.599-18.347 3.738-.483-.066-.503-.84-.049-.965 5.881-1.69 12.35-1.836 18.386-2.812.024 0 .029.039.01.039M203.62 356.024c-6.513 2.618-15.42 5.593-22.507 4.174-.648-.126-.692-1.065-.079-1.277 3.118-1.024 6.49-.898 9.746-1.265a79.642 79.642 0 0 0 12.569-2.435c.532-.144.774.599.27.803M197.68 363.743c-9.35 2.977-19.685 6.377-29.561 4.174-.52-.116-.43-.85.068-.908 9.877-1.112 19.607-1.952 29.445-3.596.189-.037.232.272.049.33M190.177 374.023c-10.997 2.666-24.193 5.779-35.216 1.789-.444-.175-.256-.918.194-.91 5.827.078 11.529.85 17.375.532 5.88-.318 11.743-1.16 17.588-1.7.16-.019.224.242.059.29M187.012 382.371c-13.583 2.194-29.84 4.222-42.927-1.091-.468-.184-.144-.792.27-.755 7.497.64 14.86 1.576 22.402 1.566 6.741-.019 13.48-.483 20.226-.203.308.02.333.436.03.483M180.199 389.067c-13.012 1.246-29.88 5.845-41.738-1.894-.56-.367-.319-1.333.42-1.17 7.253 1.673 13.733 3.2 21.275 3.266 6.659.06 13.36-.532 20-.744.367-.007.4.523.043.542M167.187 397.309c-12.664-.754-28.233 1.062-39.582-5.682-.397-.231-.2-.85.266-.753 6.17 1.227 12.088 2.946 18.36 3.72 6.997.86 14.002 1.353 20.98 2.415.158.019.145.3-.024.3M155.407 403.55c-13.027.927-27.72-1.951-38.53-9.604-.382-.271.058-.792.44-.629 12.38 5.141 24.45 9.518 38.057 9.528.443.01.487.676.033.705M138.495 407.53c-8.996-1.738-18.888-3.613-26.677-8.714-.362-.251-.197-.977.295-.802 8.862 3.102 17.376 6.598 26.499 9.014.324.087.208.57-.117.503M113.81 407.405c-1.788-.812-3.248-2.058-4.687-3.362-.093-.077.033-.222.115-.145 1.445 1.285 2.895 2.521 4.668 3.314.126.059.029.251-.097.193M281.267 272.332c-.45 5.458-6.127 11.536-9.682 15.284-2.808 2.957-8.467 8.224-12.955 6.561-.334-.134-.357-.715-.043-.869 2.067-1.052 4.313-1.353 6.407-2.522 2.715-1.527 5.015-3.768 7.127-6.03 3.59-3.826 5.498-8.636 8.692-12.636.192-.233.473-.019.454.212"/>
  <path d="M272.705 280.168c-2.17 2.899-4.697 5.12-7.803 6.957-2.33 1.362-5.456 3.1-8.194 2.744-.474-.06-.542-.726-.19-.966 2.184-1.46 5.137-1.866 7.528-3.082 3.015-1.518 5.842-3.654 8.157-6.088.304-.318.753.097.502.435M267.689 279.231c-1.899 1.643-3.807 3.11-5.966 4.368-1.779 1.042-4.094 2.48-6.2 2.01-.484-.109-.763-.784-.378-1.151 1.32-1.267 3.292-1.575 4.963-2.272 2.45-1.004 4.818-2.376 7.123-3.652.478-.27.864.359.458.697M158.866 74.601c-.748.716-1.338 1.527-1.986 2.3-.734.89-1.203 1.98-2.261 2.542-.333.183-.652-.06-.623-.427.115-1.226 1.015-2.183 1.774-3.09.71-.85 1.715-1.509 2.743-1.857.31-.116.599.29.353.532M155 70.65a171.815 171.815 0 0 1-3.6 6.598c-1.125 1.963-2.173 4.629-4.154 5.837a.516.516 0 0 1-.788-.533c.392-2.057 2.156-3.729 3.388-5.371a150.98 150.98 0 0 0 4.787-6.724c.14-.204.483-.05.368.192M151.556 64.591c-1.845 3.314-3.6 6.697-5.431 10.04-1.83 3.352-3.296 7.284-5.865 10.106-.354.395-1.01.058-.885-.445.89-3.71 3.397-7.12 5.347-10.376 1.987-3.305 4.197-6.484 6.418-9.624.179-.25.566.039.416.3M137.085 74.282c1.212-2.241 2.637-4.386 3.817-6.396 2.532-4.318 5.252-8.55 8.47-12.416.117-.144.33.03.271.184-1.803 4.638-4.209 8.976-6.504 13.381-1.706 3.229-3.05 7.084-5.02 10.33a56.915 56.915 0 0 1-1.034-5.083M135.925 63.963c.637-1.323 1.358-2.618 2.039-3.914 2.367-4.481 5.034-9.38 8.528-13.1.247-.261.784-.049.658.348-1.296 4.377-3.838 8.454-5.978 12.454-1.663 3.12-2.913 6.609-4.725 9.662a181.084 181.084 0 0 1-.522-5.45M133.968 49.837c2.189-5.005 5.6-9.777 8.689-13.555.404-.503 1.085.058.864.609-1.504 3.796-3.353 7.469-5.074 11.178-1.209 2.6-2.156 5.383-3.349 7.99a70.4 70.4 0 0 0-1.13-6.222M114.457 53.596c-2.56 2.233-4.77 4.975-6.857 7.644-2.1 2.695-3.333 5.911-5.426 8.608-.362.464-1.004 0-.947-.493.41-3.16 2.61-5.913 4.514-8.367 2.42-3.12 5.304-5.41 8.527-7.604.136-.097.32.105.19.212M93.25 68.727c3.334-8.116 10.17-15.633 16.394-21.14.444-.397 1.164.212.706.637-4.016 3.71-7.108 8.465-9.973 13.082-2.092 3.383-3.788 7.275-6.283 10.425-.139-1.044-.405-2.057-.844-3.004M89.506 58.544c1.535-3.324 3.71-6.474 5.59-9.422 3.41-5.294 7.34-10.164 11.49-14.898.493-.56 1.266.175.86.763-3.543 4.976-6.799 10.136-9.93 15.382-2.468 4.135-4.309 8.947-7.166 12.86-.405-1.4-.68-3.004-.844-4.685M89.235 49.22c.033-1.711.063-3.382.107-5.072 1.211-2.039 2.517-4.02 3.574-5.874 3.155-5.509 7.055-10.427 11.863-14.59.371-.31.918.134.574.511-4.484 5.131-7.827 10.947-11.05 16.908-1.7 3.131-3.05 6.909-5.093 10 .006-.665.014-1.294.025-1.884M89.133 33.827c-.117-1.362-.216-2.637-.245-3.864.788-1.217 1.564-2.397 2.274-3.516 2.827-4.436 6.185-9.198 10.95-11.663.307-.154.797.145.565.502-3.04 4.745-6.65 9.063-9.52 13.953-1.328 2.28-2.488 4.869-3.879 7.237-.039-.88-.072-1.76-.145-2.649M89.78 17.732c2.121-2.822 4.697-5.354 7.012-7.586.43-.405 1.038.146.691.619-2.812 3.749-5.04 7.846-7.441 11.807.334-1.644.208-3.275-.262-4.84M119.357 118.36c-.88 1.207-1.963 2.271-2.89 3.44-.884 1.12-1.633 2.3-2.818 3.12-.357.252-.908-.096-.782-.54.755-2.638 3.605-5.75 6.446-6.117.048 0 .068.058.044.097M113.393 115.568c-1.052 1.99-2.033 4.067-3.328 5.933-1.576 2.26-2.9 4.81-4.726 6.869-.26.3-.812.048-.695-.367 1.37-4.85 6.155-8.232 8.59-12.532.054-.105.219-.02.16.097M112.616 108.456c-2.082 4.175-4.566 8.02-7.272 11.816-2.763 3.866-5.29 9.276-9.176 12.048-.508.359-1.067-.163-1.005-.714.45-3.922 4.036-7.604 6.417-10.58 3.478-4.347 7.28-8.415 10.766-12.743.125-.165.357 0 .27.173M91.032 127.055c-.03-.453-.038-.918-.058-1.382 1.511-2.705 3.508-5.265 5.171-7.68 3.546-5.14 7.724-9.788 11.769-14.532.241-.28.76.04.552.368-3.04 4.666-6.186 9.275-9.273 13.913-2.915 4.376-5.214 9.73-8.59 13.758.367-1.333.53-2.812.429-4.445M90.66 113.8c-.03-.483-.062-.976-.091-1.48 1.255-1.786 2.517-3.545 3.651-5.293 3.75-5.759 7.863-11.063 12.99-15.682.352-.328.893.116.569.513-4.633 5.652-8.47 11.884-12.272 18.096-1.546 2.522-3.01 5.352-4.721 7.942-.03-1.362-.058-2.734-.126-4.096M90.491 99.345c1.034-1.536 2.174-2.995 3.236-4.434 3.127-4.241 6.925-7.951 10.786-11.499.363-.328.904.126.58.512a196.239 196.239 0 0 0-8.636 11.305c-1.882 2.666-3.487 5.7-5.406 8.435a11.502 11.502 0 0 0-.56-4.319M119.864 178.467c.202 1.227-.58 2.347-1.102 3.42-.599 1.178-1.14 2.618-2.223 3.44-.26.203-.724-.02-.72-.358.068-1.363.928-2.61 1.537-3.787.561-1.073.929-2.32 1.971-2.996.233-.163.498.01.537.28M118.168 169.153c-1.638 3.477-2.789 7.18-4.287 10.716-1.294 3.033-2.392 6.936-4.932 9.148-.512.445-1.436.136-1.271-.646.715-3.276 2.981-6.396 4.416-9.412 1.671-3.516 3.648-6.753 5.944-9.883.052-.07.16.018.13.077M115.747 162.225c-3.174 4.675-5.75 9.67-8.254 14.696-2.223 4.454-3.956 9.846-7.599 13.352-.354.339-1.064.087-.908-.472 1.275-4.832 4.373-9.373 6.668-13.808 2.637-5.121 5.58-9.943 9.566-14.106.247-.252.72.049.527.338M114.438 153.104c-7.122 9.199-10.138 21.42-17.555 30.212-.386.464-1.275.068-1.081-.549 3.479-10.812 10.944-21.46 17.848-30.379.42-.55 1.208.165.788.716M108.272 148.727c-3.604 7.294-8.567 14.397-13.225 21.044-.208.3-.753.019-.637-.31 2.715-7.738 9.436-13.816 13.272-21.025.199-.375.774-.066.59.291M102.633 145.24c-2.033 3.797-4.542 7.381-6.822 11.014-.295.454-1.048.252-.923-.338.893-4.407 4.088-7.633 6.334-11.392.522-.87 1.898-.183 1.411.715M169.627 180.448a49.309 49.309 0 0 0-2.444 2.164c-.798.763-1.44 1.69-2.277 2.424-.145.126-.343 0-.267-.183.745-2.029 3.027-3.574 4.645-4.937.314-.252.648.27.343.532M167.023 172.824a68.474 68.474 0 0 1-5.213 7.527c-1.857 2.348-3.238 5.508-5.543 7.371-.468.388-.981-.164-.938-.627.276-2.754 2.87-5.218 4.624-7.18 2.194-2.473 4.668-4.724 6.649-7.381.175-.242.561.039.42.29M165.312 164.553c-3.329 4.782-7.074 9.276-10.355 14.089-2.367 3.487-4.116 8.55-7.474 11.06-.469.35-1.194-.037-1.209-.588-.033-4.377 3.877-8.638 6.368-12.058 3.475-4.744 7.61-9.19 12.008-13.091.425-.368.986.125.662.588M140.186 180.96c1.76-2.976 3.823-5.837 5.654-8.61 3.74-5.67 8.208-10.898 13.099-15.612.303-.29.773.126.489.433-4.461 5.016-8.192 10.454-11.709 16.156-2.266 3.681-4.207 7.884-6.687 11.575-.209-1.335-.52-2.629-.846-3.943M137.916 169.317c4.01-6.464 9.942-12.494 14.292-17.749.45-.542 1.242.174.821.735a223.893 223.893 0 0 0-10.035 14.357c-1.502 2.367-2.847 4.927-4.354 7.353a47.895 47.895 0 0 1-.724-4.696M137.64 162.979c.02-.348 0-.687.014-1.034a9.657 9.657 0 0 0-.497-3.458c.9-1.566 2.049-3.045 3.006-4.398 2.357-3.334 5.04-6.319 7.947-9.158.687-.658 1.673.241 1.098.984-2.175 2.842-4.315 5.74-6.287 8.706-1.749 2.637-3.034 6.106-5.281 8.358M165.892 128.09a24.96 24.96 0 0 0-3.422 4.3c-.825 1.352-1.777 3.592-3.561 3.757-.275.02-.642-.193-.704-.483-.407-1.816 1.449-3.69 2.55-4.956 1.358-1.566 2.794-2.783 4.875-3.188.29-.039.45.377.262.57M163.162 120.978c-2.276 2.899-4.412 5.952-6.412 9.043-1.396 2.156-2.706 5.663-5.06 6.87-.455.232-1.095.04-1.111-.56-.067-2.774 2.624-5.536 4.286-7.612 2.392-2.997 5.088-5.616 8.016-8.078.203-.164.431.154.28.337M158.89 114.602c-2.792 3.864-5.604 7.691-8.427 11.545-2.815 3.875-4.257 8.657-7.142 12.368-.322.415-1.067.145-1.067-.367.006-4.05 2.672-7.943 4.953-11.12 3.339-4.65 7.364-8.63 11.114-12.948.332-.386.86.116.57.522M138.712 129.046c1.242-4.59 4.843-8.84 7.394-12.802a96.325 96.325 0 0 1 8.976-11.865c.334-.367.87.126.576.52-3.252 4.3-6.001 8.959-8.678 13.615-2.213 3.817-4 8.455-7.422 11.316-.285.231-.666.066-.831-.224-.005-.182-.005-.357-.015-.56M152.783 97.452c-2.212 3.333-4.224 6.802-6.267 10.241-1.894 3.169-3.618 7.083-6.667 9.284-.557.417-1.416-.163-1.248-.84.9-3.237 3.307-5.97 5.195-8.685 2.545-3.662 5.174-7.228 8.021-10.658.415-.502 1.343.098.966.658M138.433 104.717c.086-.125.169-.251.261-.396 1.72-2.723 3.46-5.44 5.13-8.174.228-.367.793-.097.595.29a312.966 312.966 0 0 1-4.039 7.565c-.682 1.258-1.31 2.6-2.02 3.895.058-1.054.077-2.117.073-3.18M79.798 189.655c-.043 1.083-.532 2.174-.879 3.189-.338.995-.567 2.106-1.145 3.004-.258.388-.788.28-.86-.183-.189-1.063.164-2.165.468-3.15.338-1.063.729-2.348 1.517-3.16.28-.299.91-.163.9.3M77.604 183.635c-.333 2.513-1.488 4.9-2.435 7.248-1.063 2.637-1.874 5.38-3.527 7.729-.28.406-.98.115-.986-.358-.01-2.686 1.077-4.984 2.179-7.381 1.188-2.59 2.286-5.335 3.953-7.661.31-.437.875 0 .816.423M73.275 179.49c-2.111 4.734-3.856 9.681-5.425 14.639-1.108 3.487-1.6 7.44-3.919 10.337-.373.465-1.015.108-1.089-.385-.598-3.711 1.238-7.392 2.542-10.823 1.9-4.984 4.44-9.575 7.074-14.192.295-.512 1.05-.117.817.425M56.237 198.013a1.17 1.17 0 0 0-.072-.242c2.425-7.19 6.539-14.194 9.964-20.57.236-.424.894-.087.686.367-3.74 8-6.165 16.802-9.916 24.792a23.412 23.412 0 0 0-.662-4.347M52.575 189.085c3.13-6.957 6.886-13.796 10.51-20.165.163-.299.584-.068.453.233-3.231 7.285-5.43 16-9.218 23.44a51.72 51.72 0 0 0-1.745-3.508M51.169 186.602c-.362-.59-.735-1.18-1.102-1.77a9.64 9.64 0 0 0-.811-1.138c.92-2.841 2.082-5.633 3.068-8.33 2.082-5.66 4.986-10.868 8.726-15.564.397-.503 1.243.087.914.609-3.16 4.918-5.509 10.223-7.49 15.73-1.178 3.332-2.01 7.051-3.305 10.463M55.571 162.11c-1.328 1.825-1.86 4.24-3.42 5.873-.498.522-1.34.204-1.402-.503-.29-2.607 1.498-5.024 3.285-6.733.97-.938 2.32.29 1.537 1.362M74.957 136.331c-1.43 2.406-2.145 5.12-3.867 7.323-.182.241-.588.03-.51-.232.8-2.762 1.748-5.39 3.535-7.68.353-.455 1.135.077.842.59M72.98 127.81c-1.808 2.686-3.335 5.565-4.744 8.483-1.575 3.256-2.31 7.12-4.288 10.116-.318.472-1.197.443-1.193-.242.07-6.608 5.38-14.05 9.68-18.735.241-.27.757.058.545.377M70.144 119.374a253.046 253.046 0 0 0-7.702 14.62c-2.16 4.473-3.832 9.323-6.687 13.4-.324.473-1.043.02-.943-.492 2.059-9.75 8.462-20.33 15.003-27.749.154-.185.449.018.329.221M65.065 115.586c-1.612 5.276-4.299 9.972-7.14 14.688-3.161 5.216-5.326 11.322-8.844 16.25-.357.494-1.216.155-1.216-.426.033-5.081 3.232-9.72 5.846-13.903 3.537-5.66 7.532-10.995 10.881-16.79.136-.244.566-.118.473.181M47.44 129.423c1.116-1.865 2.308-3.643 3.41-5.362 3.76-5.836 7.987-11.343 11.8-17.16.27-.416.957-.098.715.377-2.876 5.506-6.064 10.802-9.271 16.116-2.548 4.222-4.544 9.091-7.211 13.333.135-2.443.334-4.89.556-7.304M48.246 120.94c.13-1.43.09-2.831-.077-4.213.526-.9 1.077-1.816 1.6-2.724 2.41-4.165 5.005-8.174 7.666-12.175.267-.414.934-.107.688.339-2.036 3.748-3.809 7.613-5.693 11.43-1.353 2.762-2.57 5.787-4.28 8.406.033-.358.067-.696.096-1.064M71.772 81.915c.14.908-.305 1.894-.647 2.725-.294.724-.644 2.059-1.508 2.28-.207.048-.449-.039-.512-.27-.217-.793.468-1.585.817-2.282.416-.858.705-1.91 1.339-2.626.179-.222.478-.068.511.173M70.158 76.253c-.613 2.339-1.385 4.53-2.319 6.746-.811 1.931-1.624 4.395-3.314 5.66-.359.271-.904-.02-.914-.454-.048-1.932 1.207-3.642 2.07-5.324 1.197-2.308 2.593-4.55 3.815-6.86.184-.338.76-.145.662.232M66.93 68.853c-1.39 3.391-2.686 6.81-4.1 10.193-1.393 3.304-2.707 7.421-5.447 9.846-.347.308-.904.086-.82-.417.53-3.198 2.594-6.144 4.047-9.015 1.865-3.67 3.784-7.284 5.862-10.859.17-.29.584-.068.458.252M63.253 60.437c-1.057 4.629-2.55 9.014-4.255 13.45-1.871 4.85-3.935 10.59-7.38 14.52-.405.455-1.169.05-1.053-.53.99-4.6 3.74-8.831 5.707-13.103 2.208-4.82 4.42-9.66 6.673-14.453.087-.163.357-.077.308.116M60.692 52.175c-3.685 8.986-6.924 18.58-11.31 27.228-.315.629-1.122.232-1.069-.366.86-9.7 6.81-19.073 11.756-27.18.242-.377.798-.086.623.318M51.44 57.374c-.842 2.116-1.401 4.328-2.537 6.319-.299.52-1.044.241-.961-.357.314-2.319 1.212-4.493 2.19-6.629.4-.869 1.646-.193 1.308.667M42.075 211.694c-.169 1.304-.831 2.61-1.285 3.836-.42 1.121-.87 2.956-1.912 3.651-.2.116-.407 0-.499-.183-.555-1.178.165-2.975.522-4.155.382-1.265 1.039-2.802 2.04-3.719.501-.474 1.227-.117 1.134.57M36.654 208.873c-1.014 2.531-1.41 5.187-1.957 7.846-.405 2.028-.43 4.491-2.216 5.748-.335.241-.813.058-.95-.31-.728-2.173.77-4.685 1.451-6.753.803-2.386 1.864-4.656 3.02-6.878.237-.427.827-.089.652.347M33.905 197.867c-2.499 5.16-3.76 10.716-5.084 16.262-.927 3.893-1.763 8.415-4.584 11.39-.435.436-1.16.069-1.054-.54.826-4.937 3.164-9.798 4.552-14.657 1.298-4.561 2.792-8.85 5.295-12.919.328-.539 1.166-.124.875.464M29.639 193.182c-2.22 5.884-4.808 11.623-7.055 17.527-2.247 5.854-3.415 12.194-6.151 17.816-.266.54-1.218.396-1.189-.252.357-11.758 7.185-25.875 13.442-35.574.386-.6 1.194-.174.953.483M25.541 186.051c-2.33 6.58-5.16 12.899-7.2 19.634-1.84 6.087-3.16 12.522-6.248 18.125-.332.599-1.226.28-1.11-.387 1.222-6.918 3.613-13.787 5.701-20.473 1.91-6.086 4.094-12.309 8.228-17.227.218-.262.765-.04.63.328M16.428 190.554c-1.483 3.304-2.478 6.744-4.271 9.912-.347.609-1.261.29-1.135-.395.662-3.72 1.865-7.082 3.628-10.425.604-1.14 2.29-.251 1.778.908M33.48 169.046c-.942 1.962-1.596 3.922-2.194 6-.449 1.537-.407 3.613-1.521 4.821-.316.339-.862.213-1.026-.222-.627-1.682.493-4 1.065-5.633.665-1.923 1.758-3.835 3.197-5.295.237-.242.629.02.478.33M30.788 159.8c-2.028 4.308-3.584 8.84-5.049 13.382-1.13 3.536-1.715 7.42-3.774 10.56-.285.434-1.063.387-1.077-.232-.04-3.836 1.622-7.469 2.938-11.024 1.686-4.56 3.797-8.832 6.306-13.014.241-.406.855-.097.656.328M26.347 157.027c-4.45 7.864-5.898 16.985-10.412 24.763-.27.464-.99.223-.888-.308 1.661-8.86 5.072-17.779 10.307-25.132.405-.56 1.323.097.993.677M20.79 154.205c-1.215 3.344-2.434 6.707-3.536 10.088-.995 3.054-1.521 6.29-2.879 9.207-.338.735-1.372.416-1.449-.318-.765-6.677 3.894-13.836 6.792-19.536.367-.725 1.329-.155 1.073.559M33.663 139.771c-.212.917-.391 1.836-.629 2.724-.215.753-.415 1.537-1.038 2.038-.202.146-.444-.086-.415-.299.091-.762.545-1.45.797-2.164.28-.801.493-1.614.735-2.396.11-.348.623-.251.55.097M31.156 135.5c-.842 2.01-1.406 4.077-1.977 6.183-.425 1.547-.811 3.247-1.88 4.493-.29.349-.723.02-.695-.347.159-1.807 1.083-3.576 1.72-5.256.687-1.826 1.391-3.613 2.31-5.335.189-.337.672-.077.522.262M28.918 126.592c-1.661 5.517-3.405 11.333-5.78 16.58-.157.356-.728.23-.733-.145-.028-5.835 3.696-11.44 5.929-16.656.134-.311.681-.126.584.22M25.25 114.707c-2.762 9.47-4.454 19.286-7.294 28.716-.155.56-1.122.58-1.089-.087.586-9.826 4.335-19.585 7.49-28.832.188-.54 1.069-.375.894.203M168.54 246.692c-3.241 2.001-6.723 3.538-9.776 5.766-.56.396-.293 1.312.427 1.275 3.8-.184 7.442-2.046 10.815-4.681a19.862 19.862 0 0 1-1.465-2.36M166.268 239.147c-.02-.078-.035-.159-.055-.238-3.245 2.176-6.747 4.223-9.225 7.095-.306.367-.055 1.072.477.985 3.444-.618 6.521-2.666 9.32-4.959a23.08 23.08 0 0 1-.517-2.883M165.4 232.251c-.787.581-1.575 1.161-2.378 1.722-3.634 2.533-8.035 4.349-11.289 7.325-.404.386-.017 1.208.537 1.11 4.455-.732 8.39-4.018 11.834-6.801.465-.375.917-.768 1.375-1.153-.058-.735-.09-1.47-.078-2.203M166.76 225.198c.018-.045.031-.091.048-.138.295-.727.978-1 1.604-.94 2.434-1.663 4.645-3.512 6.656-5.75.353-.405-.204-1.082-.619-.715-3.122 2.676-6.72 4.793-10.373 6.687-2.848 1.477-6.33 2.676-8.533 5.053-.522.57.1 1.266.739 1.14 3.502-.725 7.036-3.208 10.045-5.063.146-.09.288-.183.434-.274M88.65 260.206c-10.828 5.43-24.125 8.58-36.127 10.164-7.09.928-14.328.783-21.464 1.15-7.237.386-14.007 2.416-21.12 3.537-.691.095-.938-.89-.41-1.247 9.842-6.647 24.477-5.015 35.764-5.4 14.525-.494 29.36-4.358 43.27-8.406.111-.03.211.126.087.202M53.711 262.67c-4.942.812-9.93 1.236-14.882 1.826-4.905.57-9.626 2.067-14.51 2.628-.74.077-1.034-.976-.44-1.352 8.229-5.373 20.391-3.383 29.764-4.348.813-.068.852 1.13.068 1.246M110.663 328.99c-3.213 10.512-5.227 21.158-7.45 31.913-.107.522-.996.482-.976-.089.295-11.11 2.623-22.144 7.91-32.008.14-.27.609-.126.516.184M74.86 378.39c-5.924 6.803-13.66 17.566-23.571 18.212-.584.04-.95-.85-.376-1.149 4.016-2.03 7.988-3.642 11.64-6.367 4.334-3.227 7.963-7.353 11.591-11.333.425-.445 1.127.174.716.638M68.196 372.874c-6.948 7.739-18.602 21.005-30.1 20.55-.73-.028-1.117-.927-.452-1.381 4.34-2.994 9.655-4.521 14.197-7.333 5.654-3.497 11.007-7.76 15.786-12.358.361-.348.912.134.57.522M59.32 368.854c-7.62 6.174-17.883 16.705-28.387 16.899-.739 0-1.106-.976-.458-1.391 4.536-2.919 9.973-4.473 14.737-7.112 4.755-2.636 9.382-5.71 13.785-8.898.32-.223.619.26.324.502M49.227 364.922c-6.89 5.507-16.172 13.208-25.623 12.378-.47-.05-.416-.717-.05-.851 3.882-1.46 7.881-2.377 11.703-4.05 4.804-2.096 9.282-5.12 13.656-7.98.31-.193.609.272.314.503M37.39 363.724c-5.04 2.463-11.09 5.333-16.835 4.957-.19 0-.29-.3-.072-.348 5.884-1.325 11.248-2.454 16.77-4.987.248-.105.363.272.136.378M38.506 355.443c-6.007 3.894-17.154 9.13-23.508 3.083-.517-.483-.063-1.304.62-1.199 3.782.57 6.821 1.7 10.793 1.199 4.054-.514 7.891-2.154 11.466-4.048.637-.33 1.26.54.629.965M37.538 347.27c-7.016 4.31-18.12 7.322-25.928 3.391-.409-.212-.438-.977.093-1.093 3.522-.704 7.123.07 10.712.06 5.084-.01 10.132-1.015 14.752-3.103.44-.202.772.483.371.745M33.659 342.091c-5.504 1.758-15.714 3.864-20.324-.705-.637-.648-.312-1.826.648-1.855 3.392-.146 6.735.926 10.181.908 3.155-.02 6.282-.502 9.408.049.811.144.85 1.352.087 1.603M28.982 334.776c-2.542-.125-4.973-.251-7.412-1.11-1.749-.629-5.186-2.29-4.354-4.675.1-.301.299-.524.637-.543 1.73-.135 3.248 1.672 4.74 2.357 2.082.957 4.354 1.547 6.519 2.3.836.26.908 1.7-.13 1.671M26.242 325.753c-1.32.146-2.566-.087-3.657-.86-.982-.677-2.266-1.991-2.18-3.277.044-.82.904-1.69 1.769-1.149.855.54 1.164 1.479 1.864 2.164.542.551 1.306.88 2.083.91 1.396.086 1.545 2.047.12 2.212M25.59 316.264c-.4-.377-.842-.724-1.22-1.13-1.264-1.333.427-3.198 1.882-2.096.44.33.845.714 1.261 1.08 1.372 1.247-.532 3.374-1.923 2.146M223.26 285.076c-9.297 8.368-32.904 17.353-42.124 4.512-.314-.454.242-1.081.71-.802 14.738 8.773 27.045 2.232 41.202-4.03.182-.076.378.184.213.32"/>
  <path d="M211.805 297.433c-10.485 3.885-24.605 7.236-34.76.754-.62-.397-.329-1.383.443-1.247 5.36.976 10.22 2.513 15.733 2.705 6.19.203 12.441-1.226 18.307-3.014.527-.163.788.61.277.802"/>
  <path d="M198.72 306.37c-8.301 1.093-19.709.735-25.75-6.037-.512-.58.03-1.392.77-1.103 3.918 1.508 7.329 3.798 11.402 5.034 4.363 1.353 9.007 1.47 13.51 1.044.7-.077.735.976.068 1.062M185.51 313.84a45.488 45.488 0 0 1-9.374-3.219c-2.63-1.295-5.81-2.482-7.746-4.733-.483-.56.217-1.275.797-1.178 2.566.395 4.779 2.212 7.007 3.467 3.073 1.768 6.199 3.391 9.557 4.571.647.242.474 1.245-.242 1.092M169.033 318.68a17.048 17.048 0 0 0-2.233-2.377c-.831-.754-1.86-1.255-2.454-2.231-.179-.31-.01-.823.397-.803 2.381.126 4.391 2.715 5.701 4.484.662.879-.745 1.788-1.411.928M282.272 220.534c-6.692 3.499-13.128 7.343-19.11 11.96-7.63 5.868-12.205 13.045-17.095 21.123a.519.519 0 0 1-.967-.339c2.484-16.802 23.261-27.004 36.992-33.09.214-.099.388.24.18.346"/>
  <path d="M267.056 237.568c-3.922 2.271-7.334 5.12-10.403 8.445-2.883 3.12-4.725 6.812-7.204 10.164-.26.357-.893.04-.769-.387 2.369-8.038 11.013-14.917 18.144-18.6.246-.125.488.234.232.378M265.457 249.81c-1.826 1.092-3.522 2.32-5.078 3.788-1.662 1.574-2.798 3.621-4.499 5.15-.526.482-1.537.134-1.328-.677 1.14-4.436 6.02-7.856 9.77-9.98 1.145-.648 2.285 1.024 1.135 1.72M196.685 285.443c-2.23-3.141-4.259-6.421-5.57-9.874-1.99-5.255-5.087-9.71-8.616-14.058-8.174-10.048-18.553-18.444-17.243-32.705.009-.107-.15-.136-.18-.029-3.617 11.71 3.997 21.053 11.109 29.584 4.465 5.343 8.935 10.6 11.727 17.053a60.08 60.08 0 0 0 4.212 8.024c1.73.26 3.164 1.08 4.56 2.005M267.387 371.715c-5.794-6.338-13.376-9.44-19.242-15.777-5.153-5.55-8.18-12.828-11.312-19.717-.262.719-.525 1.436-.782 2.153-.083.358-.191.71-.285 1.065 3.018 6.364 6.075 12.601 10.596 18.092 5.363 6.513 13.974 12.193 20.623 17.276.951.714 1.17-2.232.402-3.092"/>
  <path d="M236.975 250.272c.285-.543 1.106-.062.823.482-.485.925-1 1.798-1.497 2.67.637-.837 1.294-1.665 1.944-2.517.046-.06.1-.105.156-.139-4.26-6.903-9.995-12.663-15.887-18.359-6.93-6.695-14.187-12.647-23.266-16.144-13.394-5.17-33.456-1.362-34.838 15.333-.044.55-.155 2.135-.087 1.603l.99.92c2.524-20.629 29.152-19.519 41.623-11.228 11.202 7.462 21.599 18.36 28.443 30.232.529-.933 1.081-1.865 1.596-2.853M289.275 281.376c-4.604.54-8.216 2.508-12.232 4.192a171.039 171.039 0 0 1-3.085 3.801c5.398-1.63 10.875-5.74 15.412-7.742.142-.057.045-.261-.095-.251M288.637 190.7c.908-4.475-.675-10.3-.99-14.793-.7-9.932.773-20.058 1.275-29.991.493-9.343.971-18.695 1.59-28.039.662-9.884 3.686-19.323 4.353-29.11.121-2.001-3.072-2.155-3.088-.165-.086 8.89-2.884 17.643-3.547 26.55-.69 9.373-.947 18.745-1.346 28.127-.392 9.217-1.252 18.435-1.358 27.67-.092 6.196.492 13.074-.17 19.17-.068.667 2.765.58 2.895-.086l.386.667z"/>
  <path d="M294.706 90.553c.636-13.777 4.073-29.1 9.21-41.884 2.781-6.899 6.764-14.405 13.292-18.435 2.894-1.796 6.272-2.163 9.557-1.468 7.523 1.604 9.23 8.453 11.524 14.589.45 1.217 2.407.695 2.421-.52.241-9.548-8.14-17.654-17.536-17.586-7.271.068-12.783 5.904-16.558 11.479-9.529 14.135-15.35 35.593-14.863 52.57.058 1.604 3.161 1.565 3.238-.069l-.285 1.324zM333.283 185.724c11.365-15.286 1.512-40.937 3.894-58.136.33-2.444-3.401 1.748-3.72 4.183-2.402 17.78 6.18 36.059-2.068 53.035-.556 1.129 1.213 1.836 1.894.918"/>
  <path d="M335.39 131.887c3.155-3.642 1.478-11.942 1.42-16.512-.111-7.633-.366-15.314-1.01-22.917-.134-1.595-2.864-1.382-2.835.231.14 7.498.735 15.034 1.067 22.521.223 4.735-1.512 12.744 1.306 16.697.009.01.042 0 .052-.02"/>
  <path d="M335.907 94.998c1.595-8.29 1.903-18 3.193-25.816 1.35-8.164 2.944-17.199.996-25.363-.305-1.305-2.372-1.198-2.387.203-.184 8.473-.198 16.542-1.44 24.996-1.125 7.593-5.652 17.323-3.077 24.781.058.185 1.725.156 1.802-.037l.913 1.236zM304.857 187.84c3.078.202 6.137.405 9.235.511 3.163.097 6.648.724 9.731-.058a.514.514 0 0 0 .048-.976c-2.982-1.11-6.538-.666-9.687-.57-3.146.087-6.234.397-9.364.715-.208.02-.165.358.037.377M304.591 137.076c3.524-.841 7.447-.503 11.023-.184 3.044.28 6.232 1.884 9.266 1.43.604-.088.77-.86.416-1.266-2.125-2.454-6.543-2.464-9.533-2.695-4.001-.32-7.905.212-11.292 2.377-.175.097-.092.386.12.338M310.622 84.331c2.358.28 4.735.512 7.073.86 2.223.368 4.495 1.585 6.713 1.555.734-.008 1.125-.791.662-1.37-1.445-1.818-4.162-2.04-6.35-2.31-2.812-.348-5.527.116-8.127 1.12-.072.03-.044.135.029.145M285.339 215.097c.794-8.46 1.372-16.948 3.5-25.21.547-2.077-2.643-3.16-3.17-1.062-2.091 8.319-2.777 16.772-3.125 25.323-.018.42-.054.835-.077 1.252a33.11 33.11 0 0 1 2.872-.303M463.608 238.67c-1.73 6.522.865 14.185 2.078 20.63 1.734 9.245 1.565 15.728 1.106 25.052-.082 1.575 2.605 3.595 3.17 2.194 2.914-7.295 1.459-15.963-.048-23.441-1.561-7.797-2.958-17.197-6.166-24.444-.034-.058-.125-.058-.14.01"/>
  <path d="M447.213 395.106c8.81-16.81 19.178-32.686 22.952-51.545 3.628-18.136 5.977-41.335-.32-59.142-.685-1.923-3.324-1.4-3.097.658 1.136 10.386 3.18 19.961 2.949 30.56-.232 10.678-1.407 21.305-3.65 31.739-2.107 9.75-6.13 18.32-10.875 27.035-3.465 6.358-7.412 13.255-8.669 20.464-.068.357.537.56.71.231M265.961 372.672c6.519 14.096 18.331 27.545 31.108 36.241 13.18 8.967 32.702 13.749 48.501 11.218.794-.135.865-1.391.083-1.595-7.219-1.913-15.13-1.11-22.545-2.319-8.776-1.41-17.034-4.84-24.512-9.614-13.883-8.868-21.329-22.346-31.209-34.888-.64-.813-1.822.106-1.426.957"/>
  <path d="M315.304 415.667c-1.666 6.898-1.802 14.319-2.634 21.343-.728 6.163-2.11 12.532-1.372 18.744.062.687 1.063.646 1.267.068 2.14-5.894 2.256-12.464 2.864-18.648.683-6.976 2.05-14.444 1.189-21.43-.082-.656-1.16-.724-1.314-.077M447.05 459.986c.94-10.86-.242-22.193.226-33.16.42-10.087 1.841-25.575 2.489-35.652.17-2.405-4.272 2.802-4.387 5.216-.469 10.089-.88 20.175-.914 30.272-.025 10.657-.72 23.034 2.185 33.353.062.221.39.213.4-.029M352.586 248.739c9.581 13.651 28.76 20.58 44.193 24.598 19.254 5.016 39.215 4.909 58.653 8.406.933.175 1.127-1.11.542-1.575-6.9-5.343-16.965-4.637-25.218-4.995-9.731-.414-19.481-2.193-29.03-4.048-8.48-1.633-16.891-4.01-24.943-7.169-9.232-3.614-16.383-9.343-24.077-15.363-.095-.077-.173.057-.12.146M299.982 250.73c14.104 9.921 31.847 15.69 47.923 21.68 9.765 3.634 18.572 8.058 26.893 14.318 7.465 5.605 15.255 11.499 24.097 14.707.928.328 1.421-.928.716-1.49-7.3-5.766-15.45-10.482-22.996-15.931-7.513-5.43-15.07-9.305-23.69-12.637-8.635-3.344-17.293-6.6-25.909-9.954-8.895-3.458-18.878-5.603-26.985-10.79-.059-.05-.112.047-.049.096"/>
  <path d="M371.136 409.58c10.905-9.633 12.273-23.566 10.955-37.294-1.455-15.054-6.277-30.02-9.544-44.774-3.068-13.788-6.542-28.938-14.719-40.735-4.179-6.03-9.222-10.454-15.181-14.648-7.87-5.545-16.254-11.188-25.202-14.84-1.19-.464-2.04 1.353-.972 2.02 12.8 7.864 27.957 14.386 37.4 26.482 9.006 11.527 12.735 26.532 15.987 40.475 2.88 12.327 6.06 24.656 8.605 37.052 3.195 15.527 4.944 34.107-7.425 46.156-.073.068.023.182.096.105M339.888 60.321c6.098-19.284 2.922-58.067 33.48-54.56 1.227.145 1.532-1.701.401-2.077-27.247-9.15-36.403 38.88-34.06 56.618.016.107.15.097.18.02"/>
  <path d="M371.624 5.607c4.164.627 7.678 5.061 9.91 9.612 2.59 5.267 1.697 11.507 1.546 17.151-.198 6.658.025 13.324-.231 19.99-.258 6.783-2.701 14.9-2.567 21.634.03.897 1.692.464 1.909-.541 1.527-6.744 3.064-14 3.634-20.92.672-8.337.023-16.773.406-25.12.458-10.077-2.16-21.197-14.457-24.463-.816-.204.043.637.675 1.351l-.825 1.306z"/>
  <path d="M381.19 70.622c-2.58 7.931-.656 17.545.01 25.768.45 5.73.822 11.449.855 17.207.035 5.189-1.463 10.29-1.294 15.422.029 1.11 1.57 1.496 1.962.386 3.168-8.764 2.14-19.074 1.44-28.164-.381-5.073-.905-10.146-1.282-15.228-.385-5.102-.028-10.388-1.202-15.372-.053-.242-.415-.28-.488-.02M379.601 190.68c-4.247-16.116 4.15-30.677 4.325-46.668.023-2.095-3.194-2.299-3.266-.172-.512 15.1-9.64 32.753-2.633 47.41.404.85 1.82.368 1.574-.57"/>
  <path d="M383.708 148.071c1.832-7.517 2.194-17.286 3.01-24.957.983-9.198 2.407-18.995 1.823-28.232-.097-1.642-2.247-1.758-2.532-.136-1.498 8.339-1.393 17.18-2.088 25.644-.71 8.424-3.077 16.037-3.314 24.512-.015.492 2.333 1.497 2.464.975l.637 2.194z"/>
  <path d="M388.589 95.79c.7-10.656-1.425-22.793-.773-33.527.368-6.153 1.43-12.27 3.75-17.99 3.27-8.068 9.953-9.816 17.456-12.328 1.025-.349 1.112-2.136-.168-2.088-12.738.58-19.965 9.866-22.223 21.653-2.512 13.198-4.043 30.107-.622 43.237.149.59 2.251.309 2.29-.329l.29 1.372z"/>
  <path d="M406.853 32.659c5.933-.917 12.49 1.624 14.694 7.788 2.097 5.894 2.454 12.55 2.71 18.745.508 12.125.097 31.99.343 43.448.004.543 1.735-2.347 1.909-2.868 2.315-7.113.46-18.822.58-26.33.125-7.092.12-14.163-.527-21.227-.76-8.252-6.122-25.768-18.318-22.319-.72.203.015 1.277.73 1.382l-2.12 1.381zM424.233 215.385c.086-2.55-2.116-4.376-2.628-7.004-.817-4.252.651-9.005 1.7-13.074 1.121-4.338 5.639-12.27 3.697-16.618-.256-.551-1.096-.724-1.523-.28-3.632 3.74-12.045 38.716-1.342 37.102.054-.01.096-.059.096-.126"/>
  <path d="M427.456 180.709c-.087-5.835-1.7-11.228-1.043-17.044.642-5.651 2.233-15.826 1.183-21.44-.14-.792-.995 3.266-1.271 3.943-2.14 5.246-2.062 11.73-2.445 17.363-.4 5.719-.213 11.902 1.363 17.448.102.359.69.359.686-.058l1.527-.212z"/>
  <path d="M427.103 146.873c1.58-9.305-.57-19.14-.966-28.455-.214-5.255-.057-10.502 1.373-15.575 2.342-8.347 10.093-13.266 16.258-10.491.894.396 2.518-1.857 1.45-2.186-10.118-3.033-20.005 6.532-21.367 15.374-2.106 13.815 2.417 27.468 2.223 41.266-.01.675.918.714 1.03.067M464.946 242.072c-1.98-9.991-2.117-19.334-1.112-29.45.9-9.063 1.764-20.377-.766-29.304-.532-1.894-2.557.28-2.373 2.183 1.048 10.695.483 20.918-.237 31.614-.586 8.493-.803 17.662 2.532 25.652.468 1.141 2.185.446 1.956-.695"/>
  <path d="M462.444 187.888c1.207-7.315.908-15.12 1.25-22.542.35-7.41.59-14.86.079-22.28-.126-1.883-3.093-2.125-3.006-.164.32 7.45.332 14.84.068 22.28-.252 7.507-1.31 15.421-.126 22.842.165 1.062 1.585.782 1.735-.136"/>
  <path d="M463.845 144.138c2.782-10.174-1.816-20.927-5.089-30.638-2.777-8.27-5.614-18.56-13.537-23.334-1.45-.868-2.78 1.199-1.45 2.185 7.86 5.874 10.596 17.13 13.437 26.049 2.648 8.298 2.856 15.826 3.56 24.502.02.272 1.649 1.314 1.71 1.062l1.369.174zM433.679 144.746c4.373 4.137 14.487 7.605 20.02 4.087.404-.26.425-.868-.078-1.052-2.634-.898-5.539-.435-8.286-.666-3.906-.349-7.625-1.74-11.34-2.841-.263-.077-.543.261-.316.472M433.075 182.7c1.702 1.477 3.784 2.414 5.935 3.053 1.975.56 4.69 1.207 6.304-.388.406-.386.47-1.207-.1-1.496-1.634-.841-3.503-.484-5.286-.841-2.117-.415-4.142-1.247-6.296-1.46-.557-.057-1 .735-.557 1.131M413.922 206.313c2.642 2.967 5.488 5.624 7.687 8.985 1.265 1.923 3.939.107 2.619-1.797-1.371-1.98-2.962-3.796-4.613-5.517-1.248-1.304-2.721-3.014-4.548-3.41-1-.221-1.918.869-1.145 1.739M374.228 188.275c.788.627 1.667 1.149 2.406 1.844.807.774 1.368 1.585 1.954 2.523.966 1.573 3.482.366 2.598-1.314-1.227-2.329-4.073-5.353-6.925-3.769-.279.165-.284.512-.033.716M391.27 143.617c3.07 1.188 6.257 1.903 9.432 2.83 2.753.803 5.842 2.417 8.712 2.32.483-.02.976-.658.517-1.073-2.256-2-5.727-2.453-8.591-3.18-3.32-.838-6.639-1.371-10.06-1.08-.107.008-.097.144-.01.183M401.843 91.191c1.69-.096 3.391-.173 5.091-.202 1.5-.03 3.044.221 4.495-.156.511-.135.565-.849.063-1.024-1.436-.511-2.981-.27-4.485-.173-1.759.126-3.502.348-5.242.54-.57.068-.507 1.044.078 1.015M353.37 68.65c2.812-.395 5.575-.463 8.402-.086 2.499.328 4.653 1.535 7.103 1.96.497.087.662-.559.42-.88-3.272-4.472-11.572-3.004-16.105-1.855-.555.156-.376.949.18.86M349.122 126.767c3.02.251 6.079.029 9.112.221 3.306.195 6.437 1.392 9.418 2.784.39.183.937-.28.793-.707-2.363-6.579-14.52-5.952-19.478-3.062a.404.404 0 0 0 .155.764M310.776 210.013c3.88 3.768 12.226 8.127 17.206 3.952.402-.337.025-.87-.415-.822-5.928.571-11.886 1.054-16.727-3.197-.043-.038-.093.028-.064.067M321.909 220.217c5.302.52 11.167-3.247 13.96-7.652.309-.504-.228-1.112-.76-.85-2.124 1.052-3.73 2.791-5.566 4.24-2.232 1.76-4.876 3.228-7.663 3.866-.232.047-.184.386.029.396M370.005 208.873c1.748 4.58 3.46 8.618 7.16 12.01 2.838 2.58 7.128 5.082 11.096 4.376.554-.105.719-.908.221-1.206-3.436-2.02-7.156-2.697-10.272-5.4-3.112-2.707-5.91-6.38-7.92-9.934-.105-.194-.361-.048-.285.154M375.973 223.627c3.18 2.33 8.522 4.918 12.573 4.25.468-.076.623-.8.192-1.032-1.463-.783-3.136-.812-4.746-1.083-2.772-.445-5.405-.975-7.84-2.415-.19-.107-.354.144-.18.28M414.83 234.739c6.334 7.875 21.371 9.72 29.586 3.806.603-.435-.015-1.217-.609-1.17-4.788.494-9.026 2.155-13.974 2.068-5.475-.076-10.045-2.511-14.785-4.947-.16-.087-.339.088-.217.243M437.849 244.797c2.001-.6 3.949-1.277 5.76-2.33 1.402-.81 3.672-2.453 3.6-4.241-.015-.435-.4-.724-.827-.54-.657.288-.913.705-1.342 1.274-.623.85-1.484 1.585-2.29 2.251-1.523 1.257-3.364 2.098-5.161 2.889-.376.175-.155.812.26.697M449.325 247.84c1.034-.735 2.03-1.603 2.841-2.59.696-.84 1.977-2.367 1.253-3.488-.219-.328-.5-.454-.881-.415-1.106.116-1.57 1.525-2.068 2.367-.648 1.062-1.314 2.086-2.14 3.024-.652.725.208 1.69.995 1.102M169.01 239.801c1.706 4.252 5.07 7.39 8.204 10.629 1.71 1.778 3.363 3.603 4.9 5.546 1.58 1.98 2.488 4.376 4.17 6.24.368.397.96.05.893-.443-.545-4.05-4.4-7.788-7.078-10.629a655.153 655.153 0 0 0-11.026-11.373c-.033-.028-.072 0-.063.03M438.047 409.725c2.137-2.29 4.098-4.27 5.867-6.948 1.554-2.336 5.802-10.53 6.648-13.922.155-.608-2.21-.193-2.532.3-2.15 3.351-4.837 9.912-6.05 12.348-1.337 2.676-2.666 5.478-4.067 8.115-.05.087.062.185.134.107M376.958 286.4c-2.102 12.977-2.453 25.923-2.12 39.065.294 11.37 1.266 21.68 5.744 32.134.078.154.315.059.27-.096-2.608-11.557-3.904-22.572-3.99-34.495-.092-12.25.889-24.385.276-36.608-.01-.126-.16-.126-.18 0M380.418 358.488c.318 2.54.793 5.42 1.942 7.729.072.146.27.06.242-.077-.465-2.618-1.381-5.102-1.69-7.759-.036-.338-.537-.231-.494.107M382.684 369.812c.146.153.285.299.43.472.044.04.127-.028.087-.078-.15-.163-.289-.328-.435-.482-.039-.038-.131.028-.082.088M384.5 377.522c6.979 17.332 23.469 33.903 41.782 39.005.368.106.671-.425.304-.629-7.91-4.097-15.666-7.652-22.715-13.208-8.383-6.617-15.051-15.41-19.278-25.217-.033-.067-.122-.01-.093.049M390.39 425.638c14.641 2.28 35.38 4.958 47.865-5.217.473-.367.058-1.199-.532-1.044-7.85 2.164-14.606 5.44-22.897 6.049-8.132.59-16.279-.522-24.411-.233-.29.02-.31.396-.025.445M395.3 433.454c9.856 1.923 20.405 2.639 30.417 3.054.647.029.864-.957.216-1.15-9.769-2.85-20.525-.715-30.57-2.174-.164-.03-.213.252-.063.27M289.825 265.453c-1.478 1.517-2.707 3.282-3.952 5.034.227.385.29.87.045 1.377a60.6 60.6 0 0 1-2.276 4.194c.41-.425.826-.846 1.226-1.29 2.285-2.513 4.971-5.393 5.817-8.754.126-.474-.464-.976-.86-.56M269.179 364.584c-4.484-5.362-11.403-8.735-16.878-12.908-6.456-4.917-9.486-12.07-12.466-19.22-.461.378-.945.716-1.453 1.014 2.747 6.705 5.703 13.276 11.363 18.37 5.147 4.638 11.36 7.904 16.555 12.542 6.416 5.72 8.04 14.928 14.117 20.774.48.472 1.281-.05.982-.689-3.145-6.82-7.373-14.095-12.22-19.883M293.908 398.595c6.595 7.836 20.937 16.734 31.528 16.232.73-.02.98-1.015.252-1.286-5.93-2.222-11.756-3.392-17.472-6.366-4.94-2.58-9.186-6.292-14.129-8.803-.13-.068-.295.087-.179.223M459.075 287.087c2.194 8.647 4.04 16.926 4.528 25.903.468 9.024-.535 18.097-1.445 27.092-.047.405.605.531.71.135 4.185-16.637 4.354-37.605-2.7-53.526-.276-.62-1.266-.252-1.093.396M263.4 351.464c5.876 1.487 12.133 4.598 18.346 3.738.483-.066.504-.84.05-.966-5.881-1.69-12.35-1.836-18.386-2.812-.023 0-.03.04-.01.04M270.131 357.618c6.513 2.619 15.419 5.594 22.507 4.174.646-.126.69-1.062.077-1.276-3.116-1.024-6.489-.898-9.746-1.265a79.625 79.625 0 0 1-12.567-2.435c-.533-.145-.774.6-.27.802M276.07 365.338c9.349 2.976 19.685 6.377 29.56 4.173.523-.115.432-.85-.067-.907-9.876-1.11-19.608-1.95-29.445-3.595-.19-.039-.233.27-.049.329M283.573 375.619c10.997 2.665 24.193 5.778 35.216 1.786.443-.173.255-.918-.194-.907-5.828.078-11.53.85-17.375.532-5.881-.32-11.743-1.161-17.588-1.702-.16-.019-.222.241-.06.29M286.737 383.967c13.584 2.193 29.843 4.221 42.928-1.093.468-.182.144-.793-.27-.753-7.497.637-14.86 1.575-22.402 1.565-6.741-.02-13.48-.483-20.227-.204-.308.02-.332.436-.029.485M293.55 390.662c13.013 1.246 29.88 5.845 41.74-1.894.559-.366.317-1.333-.422-1.17-7.253 1.673-13.732 3.2-21.274 3.266-6.66.06-13.36-.53-20-.744-.367-.008-.4.523-.043.542M306.563 398.903c12.664-.753 28.232 1.063 39.582-5.682.396-.23.2-.85-.265-.753-6.171 1.228-12.09 2.948-18.36 3.72-6.998.86-14.004 1.353-20.98 2.416-.16.019-.147.3.023.3M318.344 405.145c13.027.928 27.72-1.952 38.528-9.604.382-.27-.058-.792-.44-.627-12.379 5.14-24.448 9.515-38.055 9.525-.444.01-.487.677-.033.706M335.255 409.126c8.997-1.74 18.887-3.615 26.677-8.715.362-.252.198-.976-.295-.803-8.861 3.103-17.375 6.6-26.5 9.014-.323.087-.207.571.118.504M359.94 409c1.788-.811 3.248-2.057 4.687-3.363.093-.076-.033-.221-.116-.144-1.444 1.285-2.893 2.52-4.667 3.315-.126.057-.03.251.097.192M201.16 286.852c.3-.012.588-.044.88-.067-.136-.144-.276-.289-.41-.434-3.591-3.825-5.498-8.636-8.692-12.637-.194-.232-.475-.018-.454.213.362 4.425 4.164 9.257 7.484 12.925h1.193zM205.335 286.264c.535-.132 1.06-.29 1.576-.472a30.51 30.51 0 0 1-5.364-4.466c-.304-.318-.752.099-.5.437a25.707 25.707 0 0 0 4.288 4.5M210.34 284.133c.534-.34 1.057-.711 1.572-1.125-1.84-.88-3.634-1.906-5.392-2.88-.479-.27-.865.36-.459.697 1.389 1.202 2.785 2.308 4.28 3.308M314.884 76.196c.748.715 1.338 1.526 1.985 2.3.735.889 1.203 1.98 2.262 2.541.333.184.652-.059.623-.426-.116-1.226-1.015-2.183-1.774-3.091-.71-.85-1.715-1.507-2.743-1.856-.31-.116-.599.29-.353.532M318.749 72.244a172.967 172.967 0 0 0 3.6 6.6c1.126 1.961 2.174 4.627 4.155 5.836.386.25.87-.078.788-.534-.392-2.057-2.156-3.728-3.388-5.37a150.98 150.98 0 0 1-4.788-6.724c-.14-.203-.483-.05-.367.192M322.194 66.186c1.845 3.314 3.6 6.696 5.43 10.04 1.832 3.352 3.296 7.284 5.866 10.107.354.394 1.01.056.885-.447-.89-3.71-3.397-7.12-5.347-10.376-1.987-3.304-4.195-6.484-6.418-9.624-.179-.25-.567.04-.416.3M336.665 75.877c-1.212-2.242-2.638-4.386-3.816-6.396-2.533-4.32-5.253-8.55-8.472-12.415-.116-.145-.328.029-.269.183 1.802 4.637 4.208 8.975 6.503 13.382 1.706 3.227 3.05 7.082 5.02 10.33a57.02 57.02 0 0 0 1.034-5.084M337.825 65.558c-.638-1.323-1.358-2.618-2.039-3.913-2.367-4.484-5.035-9.382-8.528-13.101-.247-.262-.784-.05-.658.348 1.295 4.378 3.838 8.454 5.978 12.453 1.662 3.122 2.913 6.609 4.725 9.662.208-1.797.367-3.633.522-5.449M339.782 51.433c-2.189-5.005-5.6-9.779-8.687-13.555-.407-.503-1.088.058-.865.607 1.502 3.798 3.353 7.469 5.073 11.18 1.208 2.6 2.156 5.38 3.348 7.99a70.208 70.208 0 0 1 1.131-6.222M359.292 55.191c2.561 2.232 4.77 4.976 6.857 7.644 2.103 2.694 3.333 5.911 5.427 8.607.363.464 1.004 0 .947-.493-.41-3.16-2.61-5.913-4.513-8.366-2.422-3.121-5.305-5.411-8.528-7.604-.136-.097-.318.105-.19.212M380.5 70.322c-3.335-8.117-10.171-15.633-16.395-21.141-.444-.396-1.164.212-.705.638 4.017 3.71 7.108 8.464 9.973 13.082 2.092 3.383 3.788 7.275 6.282 10.426.14-1.045.405-2.058.845-3.005M384.244 60.138c-1.535-3.324-3.71-6.474-5.59-9.422-3.411-5.292-7.338-10.163-11.49-14.896-.491-.561-1.267.173-.86.762 3.542 4.976 6.799 10.136 9.93 15.382 2.47 4.136 4.31 8.948 7.166 12.86.405-1.401.68-3.004.844-4.686M384.515 50.814c-.033-1.71-.062-3.381-.107-5.073-1.211-2.037-2.516-4.019-3.574-5.874-3.155-5.508-7.055-10.425-11.863-14.588-.372-.31-.918.134-.574.51 4.484 5.132 7.827 10.949 11.05 16.91 1.7 3.13 3.05 6.907 5.093 10a221.45 221.45 0 0 0-.025-1.885M384.616 35.423c.117-1.362.219-2.639.246-3.865-.787-1.217-1.565-2.397-2.274-3.516-2.827-4.435-6.185-9.199-10.95-11.662-.307-.155-.798.144-.565.501 3.04 4.745 6.649 9.064 9.52 13.953 1.328 2.28 2.488 4.87 3.879 7.236.039-.878.072-1.758.144-2.647M383.97 19.326c-2.122-2.822-4.697-5.353-7.012-7.584-.43-.406-1.038.145-.691.619 2.814 3.747 5.04 7.844 7.44 11.806-.333-1.643-.207-3.275.263-4.84"/>
  <path d="M354.393 119.955c.88 1.208 1.962 2.27 2.89 3.44.884 1.12 1.633 2.3 2.818 3.12.357.252.908-.097.782-.54-.754-2.639-3.605-5.75-6.446-6.117-.048 0-.067.06-.044.097M360.356 117.163c1.053 1.989 2.034 4.067 3.33 5.933 1.575 2.26 2.898 4.811 4.725 6.869.26.299.812.047.695-.368-1.37-4.85-6.155-8.232-8.59-12.531-.054-.106-.219-.02-.16.097M361.135 110.051c2.08 4.174 4.565 8.02 7.27 11.816 2.765 3.866 5.292 9.276 9.178 12.049.507.358 1.067-.164 1.005-.714-.452-3.923-4.036-7.605-6.418-10.582-3.479-4.347-7.282-8.414-10.765-12.744-.126-.163-.359 0-.27.175M382.718 128.65c.03-.453.037-.917.057-1.381-1.51-2.705-3.507-5.266-5.17-7.681-3.546-5.141-7.725-9.788-11.77-14.533-.24-.279-.758.04-.55.368 3.038 4.666 6.184 9.275 9.272 13.913 2.915 4.378 5.214 9.73 8.59 13.759-.366-1.334-.53-2.812-.43-4.444M383.09 115.395c.03-.484.062-.977.091-1.479-1.255-1.787-2.516-3.546-3.651-5.294-3.75-5.758-7.862-11.064-12.988-15.682-.354-.328-.895.116-.571.512 4.633 5.653 8.47 11.884 12.272 18.098 1.547 2.52 3.01 5.352 4.721 7.94.03-1.361.058-2.734.126-4.095M383.259 100.94c-1.034-1.537-2.174-2.995-3.237-4.434-3.126-4.242-6.924-7.951-10.785-11.498-.363-.33-.904.126-.58.51a196.238 196.238 0 0 1 8.635 11.306c1.885 2.667 3.488 5.7 5.407 8.434-.097-1.487.11-2.927.56-4.318M353.887 180.061c-.204 1.228.58 2.348 1.102 3.421.597 1.178 1.14 2.618 2.22 3.44.263.203.725-.02.722-.358-.068-1.363-.928-2.61-1.537-3.788-.56-1.072-.928-2.318-1.97-2.994-.233-.164-.5.009-.537.28M355.581 170.747c1.639 3.479 2.79 7.18 4.288 10.716 1.294 3.033 2.391 6.937 4.932 9.15.512.444 1.436.135 1.271-.648-.716-3.276-2.982-6.395-4.416-9.411-1.672-3.516-3.648-6.753-5.944-9.883-.053-.07-.16.017-.13.076M358.003 163.82c3.174 4.676 5.75 9.67 8.254 14.696 2.222 4.454 3.956 9.845 7.598 13.351.355.339 1.065.087.91-.472-1.277-4.832-4.374-9.373-6.669-13.807-2.637-5.12-5.58-9.942-9.567-14.106-.245-.252-.72.048-.526.338M359.312 154.7c7.122 9.197 10.138 21.419 17.554 30.212.387.464 1.276.068 1.084-.55-3.481-10.812-10.945-21.46-17.85-30.378-.42-.55-1.209.164-.788.715M365.477 150.322c3.605 7.295 8.568 14.396 13.225 21.044.209.3.754.018.638-.31-2.715-7.739-9.436-13.816-13.273-21.025-.198-.376-.772-.066-.59.29M371.117 146.835c2.034 3.796 4.543 7.381 6.822 11.015.295.453 1.048.25.922-.339-.892-4.406-4.086-7.633-6.333-11.392-.522-.87-1.899-.184-1.411.716M304.123 182.042a49.31 49.31 0 0 1 2.444 2.164c.798.764 1.44 1.692 2.277 2.425.145.126.343 0 .266-.184-.744-2.028-3.026-3.574-4.644-4.935-.314-.252-.646.268-.343.53M306.727 174.419c1.57 2.628 3.3 5.12 5.214 7.526 1.856 2.348 3.236 5.508 5.543 7.372.468.387.98-.165.937-.627-.276-2.755-2.87-5.218-4.624-7.178-2.194-2.474-4.668-4.726-6.65-7.382-.174-.242-.56.037-.42.289M308.438 166.148c3.329 4.782 7.074 9.276 10.355 14.088 2.367 3.487 4.116 8.55 7.474 11.061.468.349 1.194-.037 1.209-.588.033-4.378-3.876-8.638-6.368-12.059-3.475-4.743-7.61-9.187-12.008-13.09-.425-.368-.986.125-.662.588M333.564 182.554c-1.76-2.975-3.823-5.835-5.654-8.61-3.74-5.67-8.209-10.897-13.099-15.612-.304-.29-.772.126-.489.434 4.461 5.015 8.192 10.456 11.708 16.156 2.266 3.68 4.21 7.883 6.688 11.574.208-1.333.52-2.626.846-3.942M335.834 170.912c-4.01-6.464-9.943-12.494-14.292-17.749-.45-.542-1.242.173-.821.734 3.536 4.657 6.88 9.45 10.036 14.358 1.501 2.366 2.846 4.927 4.353 7.353.323-1.547.556-3.13.724-4.696M336.11 164.574c-.02-.349 0-.687-.014-1.034a9.661 9.661 0 0 1 .497-3.458c-.9-1.566-2.049-3.045-3.005-4.397-2.358-3.334-5.04-6.32-7.948-9.16-.687-.658-1.672.242-1.098.985 2.175 2.842 4.315 5.74 6.287 8.706 1.748 2.637 3.034 6.107 5.281 8.358M307.858 129.684a24.945 24.945 0 0 1 3.421 4.3c.826 1.353 1.779 3.594 3.562 3.757.275.02.642-.192.704-.483.406-1.815-1.449-3.689-2.55-4.955-1.358-1.566-2.793-2.782-4.875-3.188-.29-.04-.45.377-.262.57M310.588 122.573c2.276 2.899 4.412 5.952 6.412 9.043 1.395 2.155 2.707 5.663 5.06 6.87.454.233 1.096.039 1.11-.56.068-2.772-2.623-5.537-4.286-7.613-2.392-2.997-5.087-5.613-8.016-8.077-.203-.165-.43.155-.28.337M314.86 116.196c2.792 3.865 5.604 7.692 8.427 11.546 2.815 3.874 4.257 8.658 7.141 12.368.324.415 1.067.145 1.067-.367-.004-4.05-2.672-7.943-4.952-11.12-3.339-4.65-7.364-8.63-11.114-12.948-.333-.386-.86.115-.57.521M335.038 130.64c-1.243-4.588-4.843-8.84-7.394-12.801a96.29 96.29 0 0 0-8.977-11.865c-.334-.367-.87.126-.575.522 3.252 4.3 6 8.956 8.677 13.613 2.214 3.817 4.001 8.454 7.423 11.315.284.232.666.067.831-.222.004-.184.004-.357.015-.561M320.967 99.046c2.212 3.334 4.223 6.802 6.267 10.242 1.894 3.169 3.619 7.082 6.667 9.284.557.416 1.416-.163 1.248-.84-.9-3.235-3.306-5.97-5.195-8.686-2.545-3.662-5.174-7.227-8.021-10.656-.415-.503-1.344.097-.966.656M335.317 106.312c-.087-.126-.169-.251-.262-.396-1.719-2.724-3.458-5.44-5.13-8.174-.227-.367-.792-.097-.594.29a320.89 320.89 0 0 0 4.038 7.565c.683 1.257 1.31 2.599 2.02 3.894a54.065 54.065 0 0 1-.072-3.179M393.952 191.25c.044 1.082.531 2.174.88 3.189.338.994.565 2.106 1.145 3.004.256.387.788.28.86-.182.188-1.064-.165-2.166-.47-3.15-.337-1.063-.729-2.35-1.517-3.16-.279-.3-.908-.164-.898.298M396.146 185.23c.333 2.513 1.488 4.9 2.435 7.247 1.063 2.637 1.874 5.381 3.527 7.73.28.406.98.115.986-.358.01-2.686-1.077-4.985-2.179-7.382-1.189-2.589-2.286-5.333-3.953-7.66-.31-.437-.875 0-.816.423M400.476 181.086c2.11 4.733 3.855 9.68 5.425 14.638 1.106 3.487 1.6 7.44 3.919 10.338.371.464 1.015.107 1.087-.386.599-3.711-1.236-7.392-2.542-10.823-1.899-4.985-4.44-9.575-7.074-14.192-.295-.512-1.048-.117-.815.425M417.512 199.607c.015-.086.042-.163.073-.241-2.425-7.188-6.539-14.193-9.965-20.57-.235-.425-.892-.088-.685.368 3.74 8 6.166 16.8 9.915 24.79.091-1.467.3-2.927.662-4.347M421.175 190.68c-3.13-6.957-6.886-13.797-10.51-20.165-.163-.298-.584-.067-.454.233 3.232 7.285 5.431 16 9.218 23.439a51.72 51.72 0 0 1 1.746-3.507M422.581 188.197c.362-.59.735-1.178 1.102-1.77a9.64 9.64 0 0 1 .811-1.139c-.92-2.84-2.082-5.632-3.068-8.327-2.082-5.663-4.986-10.87-8.727-15.566-.396-.503-1.242.087-.914.609 3.161 4.918 5.51 10.222 7.49 15.729 1.18 3.332 2.01 7.054 3.306 10.464M418.178 163.705c1.33 1.824 1.861 4.241 3.422 5.873.497.521 1.339.203 1.4-.503.291-2.608-1.496-5.023-3.285-6.732-.97-.939-2.319.289-1.537 1.362M398.793 137.926c1.432 2.407 2.146 5.12 3.867 7.323.182.241.588.03.51-.232-.801-2.763-1.748-5.39-3.535-7.68-.353-.455-1.136.077-.842.589M400.77 129.405c1.807 2.686 3.334 5.564 4.744 8.482 1.576 3.257 2.31 7.12 4.288 10.117.318.473 1.197.444 1.193-.243-.07-6.608-5.378-14.048-9.68-18.734-.241-.27-.758.058-.545.378M403.606 120.97a253.047 253.047 0 0 1 7.701 14.618c2.16 4.473 3.832 9.324 6.688 13.4.324.473 1.043.02.943-.49-2.06-9.75-8.462-20.33-15.004-27.75-.153-.185-.448.019-.328.221M408.685 117.182c1.612 5.275 4.3 9.97 7.14 14.685 3.16 5.218 5.326 11.325 8.844 16.252.357.493 1.217.154 1.217-.425-.035-5.082-3.233-9.72-5.847-13.904-3.537-5.661-7.533-10.994-10.881-16.792-.136-.241-.564-.117-.473.184M426.31 131.018c-1.116-1.865-2.309-3.643-3.41-5.362-3.759-5.837-7.987-11.343-11.8-17.16-.27-.416-.957-.098-.716.378 2.877 5.506 6.065 10.8 9.272 16.115 2.548 4.222 4.543 9.09 7.211 13.333a201.887 201.887 0 0 0-.556-7.304M425.504 122.534c-.13-1.43-.09-2.83.077-4.211-.526-.9-1.077-1.816-1.598-2.725-2.412-4.164-5.007-8.174-7.668-12.175-.267-.415-.934-.107-.688.339 2.036 3.748 3.808 7.613 5.693 11.43 1.353 2.762 2.57 5.787 4.28 8.406-.034-.358-.067-.697-.096-1.064M401.977 83.51c-.138.908.305 1.894.648 2.726.294.724.644 2.057 1.508 2.28.207.047.449-.04.512-.272.217-.791-.468-1.583-.817-2.28-.416-.859-.705-1.913-1.339-2.629-.178-.22-.478-.066-.512.175M403.591 77.848c.613 2.34 1.387 4.531 2.32 6.744.812 1.932 1.624 4.397 3.314 5.662.359.272.904-.019.914-.454.048-1.933-1.208-3.642-2.068-5.323-1.197-2.309-2.596-4.551-3.817-6.86-.184-.34-.76-.146-.663.231M406.82 70.447c1.39 3.392 2.686 6.813 4.1 10.194 1.393 3.304 2.707 7.421 5.447 9.846.349.307.904.086.82-.417-.53-3.198-2.594-6.144-4.047-9.014-1.866-3.67-3.784-7.285-5.862-10.86-.168-.29-.584-.067-.459.251M410.497 62.031c1.057 4.63 2.55 9.015 4.255 13.45 1.871 4.85 3.935 10.59 7.379 14.522.406.454 1.17.048 1.054-.532-.99-4.599-3.74-8.83-5.707-13.1-2.208-4.822-4.42-9.663-6.673-14.455-.087-.164-.358-.077-.308.115M413.057 53.77c3.686 8.986 6.925 18.581 11.31 27.228.316.629 1.123.231 1.07-.367-.86-9.701-6.808-19.074-11.756-27.18-.242-.376-.797-.086-.624.32M422.31 58.968c.842 2.117 1.401 4.329 2.536 6.32.3.522 1.044.241.962-.357-.314-2.32-1.212-4.492-2.19-6.629-.4-.869-1.646-.194-1.308.666M431.674 213.289c.17 1.304.832 2.61 1.286 3.835.42 1.122.869 2.957 1.913 3.652.198.116.406 0 .497-.182.556-1.18-.164-2.977-.522-4.156-.381-1.265-1.038-2.802-2.038-3.719-.502-.474-1.228-.117-1.136.57M437.096 210.467c1.014 2.532 1.41 5.189 1.957 7.846.404 2.03.43 4.493 2.218 5.75.332.241.811.056.947-.311.729-2.173-.77-4.686-1.45-6.753-.803-2.387-1.864-4.657-3.02-6.879-.237-.426-.827-.086-.652.347M439.845 199.462c2.499 5.16 3.76 10.716 5.084 16.261.927 3.894 1.763 8.416 4.585 11.391a.618.618 0 0 0 1.053-.54c-.826-4.938-3.164-9.797-4.552-14.657-1.299-4.561-2.792-8.85-5.295-12.919-.329-.54-1.164-.124-.875.464M444.11 194.777c2.22 5.884 4.81 11.623 7.056 17.526 2.247 5.855 3.415 12.194 6.151 17.817.266.541 1.218.396 1.189-.251-.358-11.758-7.185-25.876-13.442-35.575-.386-.6-1.195-.175-.953.483M448.209 187.646c2.33 6.58 5.16 12.9 7.2 19.633 1.84 6.087 3.16 12.522 6.247 18.127.333.597 1.226.279 1.11-.388-1.221-6.917-3.613-13.788-5.7-20.474-1.91-6.085-4.094-12.309-8.228-17.227-.219-.26-.765-.038-.63.33M457.322 192.149c1.483 3.303 2.478 6.744 4.271 9.912.349.608 1.261.29 1.135-.395-.66-3.72-1.865-7.083-3.628-10.425-.604-1.14-2.29-.252-1.778.908M440.27 170.641c.942 1.962 1.595 3.922 2.194 6 .448 1.536.406 3.614 1.521 4.821.316.338.862.213 1.026-.221.627-1.683-.492-4.002-1.065-5.633-.665-1.924-1.758-3.836-3.197-5.297-.237-.24-.629.022-.478.33M442.961 161.395c2.029 4.308 3.585 8.84 5.05 13.381 1.13 3.537 1.715 7.421 3.774 10.561.285.434 1.062.386 1.077-.232.039-3.834-1.622-7.469-2.938-11.024-1.686-4.56-3.797-8.83-6.305-13.014-.241-.407-.856-.097-.658.328M447.402 158.622c4.451 7.865 5.9 16.986 10.413 24.762.27.466.99.224.888-.308-1.66-8.86-5.073-17.778-10.306-25.13-.406-.56-1.323.096-.995.676M452.959 155.8c1.217 3.343 2.435 6.706 3.537 10.089.995 3.051 1.521 6.288 2.879 9.206.338.734 1.372.415 1.45-.32.764-6.674-3.895-13.834-6.793-19.536-.367-.724-1.329-.153-1.073.561M440.086 141.366c.213.918.392 1.836.63 2.724.215.754.414 1.536 1.038 2.038.202.146.443-.087.415-.3-.092-.761-.546-1.45-.797-2.163-.28-.801-.493-1.612-.735-2.396-.111-.348-.623-.252-.55.097M442.594 137.095c.842 2.01 1.407 4.077 1.977 6.183.425 1.547.811 3.246 1.88 4.494.289.347.724.019.695-.347-.159-1.809-1.083-3.577-1.72-5.257-.687-1.827-1.392-3.614-2.31-5.335-.19-.336-.672-.076-.522.262M444.832 128.186c1.661 5.517 3.405 11.333 5.78 16.58.158.357.728.231.732-.143.03-5.837-3.696-11.44-5.928-16.658-.135-.31-.681-.126-.584.221M448.499 116.302c2.763 9.47 4.455 19.286 7.296 28.715.154.561 1.12.581 1.088-.087-.585-9.826-4.335-19.585-7.49-28.832-.189-.539-1.07-.374-.894.204M314.985 254.052c-3.865-2.822-8.427-4.52-12.307-7.479a1.81 1.81 0 0 1-.06-.049c-.42.706-.852 1.392-1.3 2.062 4.027 3.683 8.51 6.514 13.242 6.741.72.04.986-.879.425-1.275M316.763 247.598c-2.78-3.22-6.848-5.4-10.397-7.892-.395.782-.821 1.56-1.268 2.33 3.285 2.876 6.958 5.79 11.186 6.548.532.087.784-.618.479-.986M322.016 242.893c-3.254-2.977-7.654-4.793-11.289-7.324-.76-.53-1.504-1.08-2.249-1.63a17.665 17.665 0 0 1-.481 1.88c.548.463 1.09.932 1.648 1.383 3.446 2.782 7.38 6.068 11.834 6.803.556.095.942-.726.537-1.112M318.208 230.989c-2.204-2.377-5.687-3.575-8.533-5.053a78.54 78.54 0 0 1-4.462-2.5c.004.089.004.178.009.267.139-.042.295-.013.432.131 1.102 1.162 1.862 2.368 2.361 3.603 2.876 1.803 6.176 4.013 9.454 4.693.636.125 1.26-.57.74-1.141M385.1 261.8c10.828 5.43 24.126 8.581 36.127 10.166 7.088.926 14.327.782 21.464 1.15 7.238.385 14.008 2.415 21.12 3.535.692.097.938-.889.411-1.246-9.843-6.647-24.479-5.014-35.766-5.401-14.525-.493-29.358-4.358-43.269-8.406-.11-.029-.212.126-.086.203M420.039 264.264c4.942.813 9.93 1.236 14.882 1.828 4.905.57 9.626 2.067 14.51 2.627.74.076 1.034-.976.44-1.352-8.23-5.372-20.39-3.382-29.764-4.347-.813-.07-.85 1.129-.068 1.244M363.087 330.585c3.213 10.511 5.227 21.16 7.45 31.912.107.522.996.483.976-.086-.295-11.112-2.623-22.146-7.91-32.01-.14-.27-.609-.126-.516.184M398.89 379.985c5.924 6.802 13.66 17.566 23.57 18.213.585.038.95-.85.377-1.15-4.016-2.029-7.986-3.642-11.64-6.367-4.334-3.227-7.964-7.352-11.592-11.333-.425-.445-1.126.173-.715.637M405.553 374.469c6.948 7.739 18.603 21.004 30.102 20.55.731-.028 1.116-.928.45-1.382-4.339-2.994-9.654-4.52-14.196-7.332-5.654-3.497-11.007-7.76-15.784-12.358-.363-.349-.914.134-.572.522M414.43 370.448c7.62 6.175 17.883 16.707 28.387 16.9.739 0 1.106-.976.46-1.391-4.538-2.92-9.973-4.473-14.74-7.112-4.754-2.637-9.38-5.71-13.784-8.898-.32-.223-.619.26-.324.501M424.523 366.517c6.89 5.507 16.172 13.207 25.624 12.377.469-.05.415-.716.048-.85-3.88-1.459-7.88-2.377-11.702-4.05-4.804-2.096-9.282-5.119-13.656-7.98-.31-.192-.61.272-.314.503M436.361 365.319c5.04 2.463 11.088 5.333 16.834 4.957.188 0 .29-.3.073-.348-5.885-1.325-11.249-2.454-16.77-4.987-.248-.105-.364.272-.137.378M435.245 357.039c6.007 3.893 17.152 9.13 23.506 3.082.518-.483.063-1.305-.618-1.198-3.784.57-6.822 1.7-10.794 1.198-4.054-.513-7.89-2.155-11.465-4.05-.638-.328-1.261.543-.63.968M436.212 348.864c7.015 4.31 18.12 7.323 25.928 3.392.41-.213.438-.977-.093-1.093-3.522-.704-7.121.07-10.712.06-5.084-.01-10.132-1.016-14.752-3.103-.438-.203-.772.483-.371.744M440.091 343.686c5.504 1.758 15.714 3.864 20.324-.706.637-.647.312-1.826-.648-1.855-3.392-.146-6.736.927-10.181.908-3.156-.019-6.282-.501-9.407.05-.812.144-.851 1.351-.088 1.603M444.768 336.372c2.542-.126 4.973-.252 7.412-1.112 1.75-.627 5.185-2.289 4.354-4.676-.101-.299-.3-.521-.638-.54-1.73-.136-3.247 1.671-4.74 2.356-2.082.957-4.353 1.547-6.517 2.3-.837.26-.91 1.7.129 1.672M447.508 327.347c1.32.146 2.565-.086 3.657-.86.982-.675 2.268-1.99 2.18-3.275-.044-.822-.903-1.691-1.77-1.15-.854.542-1.162 1.479-1.863 2.165-.54.55-1.304.878-2.084.908-1.395.087-1.544 2.049-.12 2.212M448.16 317.859c.401-.377.842-.724 1.218-1.13 1.267-1.333-.425-3.198-1.88-2.097-.44.33-.844.716-1.26 1.083-1.373 1.246.532 3.371 1.923 2.144M291.904 290.381c-7.697 4.582-14.73 4.982-21.71 3.432-.641.748-1.28 1.497-1.92 2.246 9.25 2.666 19.11 2.408 24.34-4.877.313-.454-.242-1.081-.71-.8M296.261 298.536c-5.358.974-10.218 2.511-15.732 2.705-5.007.163-10.054-.748-14.905-2.046-.243.29-.482.584-.722.876 10.074 3.372 22.575 5.602 31.803-.289.62-.396.33-1.382-.444-1.246"/>
  <path d="M275.03 307.966c8.302 1.091 19.71.734 25.75-6.04.511-.579-.03-1.391-.769-1.1-3.92 1.507-7.33 3.796-11.403 5.033-4.362 1.353-9.007 1.47-13.511 1.044-.7-.078-.733.974-.067 1.063M288.24 315.434a45.488 45.488 0 0 0 9.373-3.218c2.63-1.294 5.81-2.482 7.747-4.733.483-.56-.217-1.275-.797-1.178-2.567.394-4.78 2.211-7.006 3.466-3.074 1.77-6.2 3.393-9.558 4.572-.648.241-.474 1.246.242 1.091M304.717 320.275a17.129 17.129 0 0 1 2.233-2.378c.831-.753 1.86-1.255 2.453-2.23.18-.31.01-.822-.396-.803-2.381.126-4.391 2.715-5.701 4.483-.663.88.744 1.789 1.411.928M191.479 222.129c6.69 3.499 13.127 7.343 19.109 11.962 7.63 5.865 12.205 13.043 17.095 21.12a.518.518 0 0 0 .966-.338c-2.484-16.8-23.26-27.005-36.992-33.091-.213-.097-.386.241-.178.347"/>
  <path d="M206.694 239.163c3.923 2.27 7.334 5.12 10.403 8.444 2.883 3.121 4.725 6.812 7.203 10.165.26.357.894.039.77-.387-2.369-8.039-11.013-14.917-18.145-18.6-.245-.125-.487.233-.23.378M208.293 251.405c1.827 1.091 3.523 2.319 5.079 3.788 1.661 1.574 2.798 3.623 4.497 5.15.527.482 1.537.134 1.33-.677-1.14-4.436-6.021-7.855-9.77-9.98-1.146-.648-2.285 1.023-1.136 1.719"/>
  <path d="M117.442 653.63l-27.644-72.773-27.47 72.773-48.641-128.578h4.024s41.293 109.16 44.617 117.732c1.925-4.548 14.173-37.435 25.545-67.35l-19.246-50.382h4.023s7.875 20.819 17.148 44.96c9.273-24.141 17.146-44.96 17.146-44.96h4.201l-19.248 50.382c11.373 29.915 23.796 62.802 25.545 67.35 3.326-8.573 44.618-117.732 44.618-117.732h4.199L117.442 653.63zM183.75 649.781h3.85V525.054h-3.85zM259.684 595.376c3.85-3.498 7.174-7.522 9.273-12.245 2.276-4.723 3.5-10.146 3.5-15.919 0-10.67-4.374-20.818-12.773-27.815-7.698-6.821-18.023-10.495-28.695-10.495h-22.046v77.495h22.046c10.672-.35 20.997-4.372 28.695-11.02m-18.546 13.644l35.693 40.76h-4.9l-35.344-40.06c-1.75.175-3.674.35-5.598.35h-22.046v39.71h-3.85V525.053h25.896c11.374 0 22.746 4.025 31.318 11.372 8.926 7.872 13.999 18.893 13.999 30.788 0 12.07-5.073 23.091-13.999 30.965-5.947 5.246-13.297 8.92-21.169 10.844M360.989 528.902h-39.542v120.88h-3.85v-120.88h-39.72v-3.849h83.112zM449.872 525.053v124.728h-3.85v-39.71h-65.611v39.71h-3.674V525.053h3.674v81.17h65.612v-81.17z"/>
</svg>
